{"glyphs":{"0":{"ha":903,"x_min":63,"x_max":840,"o":"m 450 -32 q 258 13 347 -32 q 116 146 169 58 q 63 356 63 233 l 63 671 q 104 865 63 772 q 233 1017 146 958 q 449 1076 321 1076 q 675 1018 588 1076 q 801 867 763 960 q 840 671 840 775 l 840 350 q 734 67 840 165 q 450 -32 628 -32 m 451 151 q 594 213 543 151 q 644 419 644 275 l 644 658 q 594 829 644 768 q 444 890 544 890 q 303 831 354 890 q 253 656 253 772 l 253 404 q 306 216 253 281 q 451 151 358 151 z "},"1":{"ha":903,"x_min":219,"x_max":629,"o":"m 596 42 q 607 31 596 35 q 629 26 618 26 l 629 0 l 372 0 l 372 26 q 394 31 383 26 q 406 42 406 35 l 406 875 l 261 875 q 250 865 254 875 q 246 846 246 856 l 219 846 l 219 1071 l 246 1071 q 250 1051 246 1061 q 261 1042 254 1042 l 626 1042 l 626 1015 q 606 1011 617 1015 q 596 1000 596 1007 l 596 42 z "},"2":{"ha":903,"x_min":64,"x_max":840,"o":"m 840 196 l 840 -29 l 814 -29 q 810 -10 814 -19 q 799 0 806 0 l 92 0 l 92 43 l 504 493 q 600 611 564 558 q 636 722 636 664 q 588 853 636 801 q 463 904 539 904 q 342 857 394 904 q 288 738 290 810 q 301 726 289 731 q 325 722 314 722 l 325 696 l 64 696 l 64 722 q 86 726 74 722 q 99 738 99 731 q 153 906 107 831 q 280 1026 199 982 q 471 1071 361 1071 q 665 1020 586 1071 q 784 888 744 969 q 824 718 824 807 q 803 603 824 654 q 744 500 783 551 q 629 365 706 449 l 449 167 l 799 167 q 810 176 806 167 q 814 196 814 186 l 840 196 z "},"3":{"ha":903,"x_min":25,"x_max":847,"o":"m 847 1042 l 847 899 l 565 656 q 701 594 642 642 q 794 477 761 547 q 828 324 828 407 q 785 153 828 233 q 656 25 742 74 q 447 -24 569 -24 q 228 43 328 -24 q 71 242 128 110 q 57 247 69 247 q 35 243 43 247 l 25 267 l 263 372 l 274 347 q 251 334 263 343 q 243 318 240 325 q 322 199 267 246 q 447 153 376 153 q 545 177 501 153 q 613 242 589 201 q 638 326 638 282 q 587 451 638 401 q 461 500 536 500 q 397 490 428 500 q 392 483 392 489 q 400 468 392 476 l 381 450 l 353 482 l 285 554 l 238 606 l 257 624 q 274 612 264 617 q 289 611 283 607 l 589 875 l 174 875 q 163 865 167 875 q 158 846 158 856 l 132 846 l 132 1071 l 158 1071 q 163 1051 158 1061 q 174 1042 167 1042 l 847 1042 z "},"4":{"ha":903,"x_min":19,"x_max":883,"o":"m 883 407 l 883 189 l 857 189 q 853 207 857 197 q 842 217 849 217 l 711 217 l 711 42 q 722 31 711 35 q 742 26 732 26 l 742 0 l 508 0 l 508 26 q 528 31 518 26 q 539 42 539 35 l 539 217 l 61 217 q 50 206 54 217 q 46 186 46 196 l 19 186 l 19 379 l 488 1042 l 742 1042 l 742 1015 q 722 1011 732 1015 q 711 1000 711 1007 l 711 379 l 842 379 q 853 389 849 379 q 857 407 857 399 l 883 407 m 539 839 l 214 379 l 539 379 l 539 839 z "},"5":{"ha":903,"x_min":69,"x_max":839,"o":"m 465 701 q 661 656 576 701 q 792 530 746 611 q 839 340 839 449 q 791 142 839 228 q 656 10 743 57 q 453 -37 568 -37 q 279 1 356 -37 q 122 122 203 40 q 114 125 119 125 q 86 113 103 125 l 69 132 l 256 293 l 274 274 q 258 256 265 267 q 256 239 251 244 q 341 167 292 194 q 450 140 390 140 q 600 196 550 140 q 650 343 650 251 q 595 479 650 426 q 456 532 540 532 q 358 510 400 532 q 292 456 315 489 l 101 490 l 107 517 q 119 515 110 515 q 142 525 140 515 l 246 1001 l 246 1004 q 240 1013 246 1010 q 225 1015 233 1015 l 225 1042 l 724 1042 q 735 1051 731 1042 q 739 1071 739 1061 l 765 1071 l 765 846 l 739 846 q 735 865 739 856 q 724 875 731 875 l 399 875 l 357 686 q 465 701 407 701 z "},"6":{"ha":903,"x_min":64,"x_max":847,"o":"m 847 319 q 799 130 847 213 q 664 1 751 47 q 461 -46 576 -46 q 251 3 342 -46 q 113 138 161 51 q 64 335 64 224 q 163 617 64 478 l 471 1053 q 472 1057 472 1054 q 465 1070 472 1063 q 453 1082 458 1078 l 468 1104 l 671 965 l 656 943 q 635 953 647 950 q 619 950 624 957 l 408 676 q 440 681 419 679 q 474 683 460 683 q 671 636 586 683 q 801 506 756 589 q 847 319 847 424 m 658 318 q 606 471 658 411 q 458 531 554 531 q 308 472 364 531 q 253 326 253 413 q 308 181 253 238 q 457 125 364 125 q 560 153 514 125 q 633 226 607 182 q 658 318 658 271 z "},"7":{"ha":903,"x_min":63,"x_max":868,"o":"m 868 938 l 329 8 q 328 4 328 7 q 335 -9 328 -1 q 350 -21 343 -17 l 338 -44 l 111 81 l 124 103 q 151 96 140 96 q 161 100 160 96 l 611 874 l 104 874 q 93 864 97 874 q 89 844 89 854 l 63 844 l 63 1071 l 89 1071 q 93 1051 89 1061 q 104 1042 97 1042 l 868 1042 l 868 938 z "},"8":{"ha":903,"x_min":101,"x_max":803,"o":"m 667 557 q 765 446 728 517 q 803 300 803 375 q 760 124 803 200 q 639 8 718 49 q 451 -33 560 -33 q 271 6 350 -33 q 147 120 192 46 q 101 293 101 194 q 139 449 101 379 q 242 561 176 518 q 160 654 190 597 q 131 772 131 711 q 172 927 131 858 q 286 1034 213 996 q 451 1072 360 1072 q 625 1033 553 1072 q 735 924 697 993 q 772 765 772 854 q 744 648 772 703 q 667 557 717 593 m 451 917 q 342 876 382 917 q 303 779 303 835 q 342 672 303 714 q 451 629 382 629 q 560 669 524 629 q 597 776 597 710 q 559 876 597 835 q 451 917 521 917 m 454 126 q 582 176 536 126 q 628 301 628 226 q 580 422 628 374 q 453 469 532 469 q 360 446 400 469 q 299 384 321 422 q 278 303 278 346 q 325 178 278 231 q 454 126 372 126 z "},"9":{"ha":903,"x_min":65,"x_max":838,"o":"m 65 714 q 113 902 65 819 q 246 1031 160 985 q 442 1076 332 1076 q 651 1028 561 1076 q 789 895 740 981 q 838 699 838 810 q 746 417 838 546 l 435 -22 q 433 -26 433 -24 q 440 -40 433 -32 q 453 -50 446 -47 l 439 -72 l 228 57 l 242 79 q 264 71 251 74 q 281 74 276 68 l 488 356 q 429 350 457 350 q 241 396 324 350 q 112 524 158 442 q 65 714 65 607 m 243 718 q 300 575 243 629 q 446 521 357 521 q 595 574 543 521 q 647 718 647 626 q 592 858 647 804 q 446 913 538 913 q 301 857 358 913 q 243 718 243 801 z "},"˛":{"ha":694,"x_min":129,"x_max":569,"o":"m 129 1222 l 569 1222 l 569 -167 l 129 -167 l 129 1222 m 463 1083 l 463 1129 l 233 1129 l 233 1083 l 324 1083 l 324 1032 l 232 1032 l 232 986 l 463 986 l 463 1032 l 371 1032 l 371 1083 l 463 1083 m 371 853 l 371 950 l 232 950 l 232 806 l 463 806 l 463 853 l 371 853 m 278 903 l 324 903 l 324 853 l 278 853 l 278 903 m 463 722 l 463 768 l 232 768 l 232 722 l 324 722 l 324 671 l 232 671 l 232 625 l 371 625 l 371 722 l 463 722 m 463 546 l 463 685 l 417 685 l 417 593 l 232 593 l 232 546 l 463 546 m 463 358 l 463 515 l 324 515 l 324 438 l 371 438 l 371 469 l 417 469 l 417 404 l 278 404 l 278 515 l 232 515 l 232 358 l 463 358 m 463 118 l 463 275 l 232 275 l 232 118 l 463 118 m 278 229 l 417 229 l 417 164 l 278 164 l 278 229 m 463 40 l 463 86 l 232 86 l 232 40 l 329 40 l 232 -25 l 232 -71 l 463 -71 l 463 -25 l 321 -25 l 418 40 l 463 40 z "},"̂":{"ha":694,"x_min":129,"x_max":569,"o":"m 129 1222 l 569 1222 l 569 -167 l 129 -167 l 129 1222 m 463 1083 l 463 1129 l 233 1129 l 233 1083 l 324 1083 l 324 1032 l 232 1032 l 232 986 l 463 986 l 463 1032 l 371 1032 l 371 1083 l 463 1083 m 371 853 l 371 950 l 232 950 l 232 806 l 463 806 l 463 853 l 371 853 m 278 903 l 324 903 l 324 853 l 278 853 l 278 903 m 463 722 l 463 768 l 232 768 l 232 722 l 324 722 l 324 671 l 232 671 l 232 625 l 371 625 l 371 722 l 463 722 m 463 546 l 463 685 l 417 685 l 417 593 l 232 593 l 232 546 l 463 546 m 463 358 l 463 515 l 324 515 l 324 438 l 371 438 l 371 469 l 417 469 l 417 404 l 278 404 l 278 515 l 232 515 l 232 358 l 463 358 m 463 118 l 463 275 l 232 275 l 232 118 l 463 118 m 278 229 l 417 229 l 417 164 l 278 164 l 278 229 m 463 40 l 463 86 l 232 86 l 232 40 l 329 40 l 232 -25 l 232 -71 l 463 -71 l 463 -25 l 321 -25 l 418 40 l 463 40 z "},"―":{"ha":694,"x_min":129,"x_max":569,"o":"m 129 1222 l 569 1222 l 569 -167 l 129 -167 l 129 1222 m 463 1083 l 463 1129 l 233 1129 l 233 1083 l 324 1083 l 324 1032 l 232 1032 l 232 986 l 463 986 l 463 1032 l 371 1032 l 371 1083 l 463 1083 m 371 853 l 371 950 l 232 950 l 232 806 l 463 806 l 463 853 l 371 853 m 278 903 l 324 903 l 324 853 l 278 853 l 278 903 m 463 722 l 463 768 l 232 768 l 232 722 l 324 722 l 324 671 l 232 671 l 232 625 l 371 625 l 371 722 l 463 722 m 463 546 l 463 685 l 417 685 l 417 593 l 232 593 l 232 546 l 463 546 m 463 358 l 463 515 l 324 515 l 324 438 l 371 438 l 371 469 l 417 469 l 417 404 l 278 404 l 278 515 l 232 515 l 232 358 l 463 358 m 463 118 l 463 275 l 232 275 l 232 118 l 463 118 m 278 229 l 417 229 l 417 164 l 278 164 l 278 229 m 463 40 l 463 86 l 232 86 l 232 40 l 329 40 l 232 -25 l 232 -71 l 463 -71 l 463 -25 l 321 -25 l 418 40 l 463 40 z "},"‖":{"ha":694,"x_min":129,"x_max":569,"o":"m 129 1222 l 569 1222 l 569 -167 l 129 -167 l 129 1222 m 463 1083 l 463 1129 l 233 1129 l 233 1083 l 324 1083 l 324 1032 l 232 1032 l 232 986 l 463 986 l 463 1032 l 371 1032 l 371 1083 l 463 1083 m 371 853 l 371 950 l 232 950 l 232 806 l 463 806 l 463 853 l 371 853 m 278 903 l 324 903 l 324 853 l 278 853 l 278 903 m 463 722 l 463 768 l 232 768 l 232 722 l 324 722 l 324 671 l 232 671 l 232 625 l 371 625 l 371 722 l 463 722 m 463 546 l 463 685 l 417 685 l 417 593 l 232 593 l 232 546 l 463 546 m 463 358 l 463 515 l 324 515 l 324 438 l 371 438 l 371 469 l 417 469 l 417 404 l 278 404 l 278 515 l 232 515 l 232 358 l 463 358 m 463 118 l 463 275 l 232 275 l 232 118 l 463 118 m 278 229 l 417 229 l 417 164 l 278 164 l 278 229 m 463 40 l 463 86 l 232 86 l 232 40 l 329 40 l 232 -25 l 232 -71 l 463 -71 l 463 -25 l 321 -25 l 418 40 l 463 40 z "},"‗":{"ha":694,"x_min":129,"x_max":569,"o":"m 129 1222 l 569 1222 l 569 -167 l 129 -167 l 129 1222 m 463 1083 l 463 1129 l 233 1129 l 233 1083 l 324 1083 l 324 1032 l 232 1032 l 232 986 l 463 986 l 463 1032 l 371 1032 l 371 1083 l 463 1083 m 371 853 l 371 950 l 232 950 l 232 806 l 463 806 l 463 853 l 371 853 m 278 903 l 324 903 l 324 853 l 278 853 l 278 903 m 463 722 l 463 768 l 232 768 l 232 722 l 324 722 l 324 671 l 232 671 l 232 625 l 371 625 l 371 722 l 463 722 m 463 546 l 463 685 l 417 685 l 417 593 l 232 593 l 232 546 l 463 546 m 463 358 l 463 515 l 324 515 l 324 438 l 371 438 l 371 469 l 417 469 l 417 404 l 278 404 l 278 515 l 232 515 l 232 358 l 463 358 m 463 118 l 463 275 l 232 275 l 232 118 l 463 118 m 278 229 l 417 229 l 417 164 l 278 164 l 278 229 m 463 40 l 463 86 l 232 86 l 232 40 l 329 40 l 232 -25 l 232 -71 l 463 -71 l 463 -25 l 321 -25 l 418 40 l 463 40 z "},"‛":{"ha":694,"x_min":129,"x_max":569,"o":"m 129 1222 l 569 1222 l 569 -167 l 129 -167 l 129 1222 m 463 1083 l 463 1129 l 233 1129 l 233 1083 l 324 1083 l 324 1032 l 232 1032 l 232 986 l 463 986 l 463 1032 l 371 1032 l 371 1083 l 463 1083 m 371 853 l 371 950 l 232 950 l 232 806 l 463 806 l 463 853 l 371 853 m 278 903 l 324 903 l 324 853 l 278 853 l 278 903 m 463 722 l 463 768 l 232 768 l 232 722 l 324 722 l 324 671 l 232 671 l 232 625 l 371 625 l 371 722 l 463 722 m 463 546 l 463 685 l 417 685 l 417 593 l 232 593 l 232 546 l 463 546 m 463 358 l 463 515 l 324 515 l 324 438 l 371 438 l 371 469 l 417 469 l 417 404 l 278 404 l 278 515 l 232 515 l 232 358 l 463 358 m 463 118 l 463 275 l 232 275 l 232 118 l 463 118 m 278 229 l 417 229 l 417 164 l 278 164 l 278 229 m 463 40 l 463 86 l 232 86 l 232 40 l 329 40 l 232 -25 l 232 -71 l 463 -71 l 463 -25 l 321 -25 l 418 40 l 463 40 z "},"‟":{"ha":694,"x_min":129,"x_max":569,"o":"m 129 1222 l 569 1222 l 569 -167 l 129 -167 l 129 1222 m 463 1083 l 463 1129 l 233 1129 l 233 1083 l 324 1083 l 324 1032 l 232 1032 l 232 986 l 463 986 l 463 1032 l 371 1032 l 371 1083 l 463 1083 m 371 853 l 371 950 l 232 950 l 232 806 l 463 806 l 463 853 l 371 853 m 278 903 l 324 903 l 324 853 l 278 853 l 278 903 m 463 722 l 463 768 l 232 768 l 232 722 l 324 722 l 324 671 l 232 671 l 232 625 l 371 625 l 371 722 l 463 722 m 463 546 l 463 685 l 417 685 l 417 593 l 232 593 l 232 546 l 463 546 m 463 358 l 463 515 l 324 515 l 324 438 l 371 438 l 371 469 l 417 469 l 417 404 l 278 404 l 278 515 l 232 515 l 232 358 l 463 358 m 463 118 l 463 275 l 232 275 l 232 118 l 463 118 m 278 229 l 417 229 l 417 164 l 278 164 l 278 229 m 463 40 l 463 86 l 232 86 l 232 40 l 329 40 l 232 -25 l 232 -71 l 463 -71 l 463 -25 l 321 -25 l 418 40 l 463 40 z "},"†":{"ha":694,"x_min":129,"x_max":569,"o":"m 129 1222 l 569 1222 l 569 -167 l 129 -167 l 129 1222 m 463 1083 l 463 1129 l 233 1129 l 233 1083 l 324 1083 l 324 1032 l 232 1032 l 232 986 l 463 986 l 463 1032 l 371 1032 l 371 1083 l 463 1083 m 371 853 l 371 950 l 232 950 l 232 806 l 463 806 l 463 853 l 371 853 m 278 903 l 324 903 l 324 853 l 278 853 l 278 903 m 463 722 l 463 768 l 232 768 l 232 722 l 324 722 l 324 671 l 232 671 l 232 625 l 371 625 l 371 722 l 463 722 m 463 546 l 463 685 l 417 685 l 417 593 l 232 593 l 232 546 l 463 546 m 463 358 l 463 515 l 324 515 l 324 438 l 371 438 l 371 469 l 417 469 l 417 404 l 278 404 l 278 515 l 232 515 l 232 358 l 463 358 m 463 118 l 463 275 l 232 275 l 232 118 l 463 118 m 278 229 l 417 229 l 417 164 l 278 164 l 278 229 m 463 40 l 463 86 l 232 86 l 232 40 l 329 40 l 232 -25 l 232 -71 l 463 -71 l 463 -25 l 321 -25 l 418 40 l 463 40 z "},"‡":{"ha":694,"x_min":129,"x_max":569,"o":"m 129 1222 l 569 1222 l 569 -167 l 129 -167 l 129 1222 m 463 1083 l 463 1129 l 233 1129 l 233 1083 l 324 1083 l 324 1032 l 232 1032 l 232 986 l 463 986 l 463 1032 l 371 1032 l 371 1083 l 463 1083 m 371 853 l 371 950 l 232 950 l 232 806 l 463 806 l 463 853 l 371 853 m 278 903 l 324 903 l 324 853 l 278 853 l 278 903 m 463 722 l 463 768 l 232 768 l 232 722 l 324 722 l 324 671 l 232 671 l 232 625 l 371 625 l 371 722 l 463 722 m 463 546 l 463 685 l 417 685 l 417 593 l 232 593 l 232 546 l 463 546 m 463 358 l 463 515 l 324 515 l 324 438 l 371 438 l 371 469 l 417 469 l 417 404 l 278 404 l 278 515 l 232 515 l 232 358 l 463 358 m 463 118 l 463 275 l 232 275 l 232 118 l 463 118 m 278 229 l 417 229 l 417 164 l 278 164 l 278 229 m 463 40 l 463 86 l 232 86 l 232 40 l 329 40 l 232 -25 l 232 -71 l 463 -71 l 463 -25 l 321 -25 l 418 40 l 463 40 z "},"‣":{"ha":694,"x_min":129,"x_max":569,"o":"m 129 1222 l 569 1222 l 569 -167 l 129 -167 l 129 1222 m 463 1083 l 463 1129 l 233 1129 l 233 1083 l 324 1083 l 324 1032 l 232 1032 l 232 986 l 463 986 l 463 1032 l 371 1032 l 371 1083 l 463 1083 m 371 853 l 371 950 l 232 950 l 232 806 l 463 806 l 463 853 l 371 853 m 278 903 l 324 903 l 324 853 l 278 853 l 278 903 m 463 722 l 463 768 l 232 768 l 232 722 l 324 722 l 324 671 l 232 671 l 232 625 l 371 625 l 371 722 l 463 722 m 463 546 l 463 685 l 417 685 l 417 593 l 232 593 l 232 546 l 463 546 m 463 358 l 463 515 l 324 515 l 324 438 l 371 438 l 371 469 l 417 469 l 417 404 l 278 404 l 278 515 l 232 515 l 232 358 l 463 358 m 463 118 l 463 275 l 232 275 l 232 118 l 463 118 m 278 229 l 417 229 l 417 164 l 278 164 l 278 229 m 463 40 l 463 86 l 232 86 l 232 40 l 329 40 l 232 -25 l 232 -71 l 463 -71 l 463 -25 l 321 -25 l 418 40 l 463 40 z "},"․":{"ha":694,"x_min":129,"x_max":569,"o":"m 129 1222 l 569 1222 l 569 -167 l 129 -167 l 129 1222 m 463 1083 l 463 1129 l 233 1129 l 233 1083 l 324 1083 l 324 1032 l 232 1032 l 232 986 l 463 986 l 463 1032 l 371 1032 l 371 1083 l 463 1083 m 371 853 l 371 950 l 232 950 l 232 806 l 463 806 l 463 853 l 371 853 m 278 903 l 324 903 l 324 853 l 278 853 l 278 903 m 463 722 l 463 768 l 232 768 l 232 722 l 324 722 l 324 671 l 232 671 l 232 625 l 371 625 l 371 722 l 463 722 m 463 546 l 463 685 l 417 685 l 417 593 l 232 593 l 232 546 l 463 546 m 463 358 l 463 515 l 324 515 l 324 438 l 371 438 l 371 469 l 417 469 l 417 404 l 278 404 l 278 515 l 232 515 l 232 358 l 463 358 m 463 118 l 463 275 l 232 275 l 232 118 l 463 118 m 278 229 l 417 229 l 417 164 l 278 164 l 278 229 m 463 40 l 463 86 l 232 86 l 232 40 l 329 40 l 232 -25 l 232 -71 l 463 -71 l 463 -25 l 321 -25 l 418 40 l 463 40 z "},"‥":{"ha":694,"x_min":129,"x_max":569,"o":"m 129 1222 l 569 1222 l 569 -167 l 129 -167 l 129 1222 m 463 1083 l 463 1129 l 233 1129 l 233 1083 l 324 1083 l 324 1032 l 232 1032 l 232 986 l 463 986 l 463 1032 l 371 1032 l 371 1083 l 463 1083 m 371 853 l 371 950 l 232 950 l 232 806 l 463 806 l 463 853 l 371 853 m 278 903 l 324 903 l 324 853 l 278 853 l 278 903 m 463 722 l 463 768 l 232 768 l 232 722 l 324 722 l 324 671 l 232 671 l 232 625 l 371 625 l 371 722 l 463 722 m 463 546 l 463 685 l 417 685 l 417 593 l 232 593 l 232 546 l 463 546 m 463 358 l 463 515 l 324 515 l 324 438 l 371 438 l 371 469 l 417 469 l 417 404 l 278 404 l 278 515 l 232 515 l 232 358 l 463 358 m 463 118 l 463 275 l 232 275 l 232 118 l 463 118 m 278 229 l 417 229 l 417 164 l 278 164 l 278 229 m 463 40 l 463 86 l 232 86 l 232 40 l 329 40 l 232 -25 l 232 -71 l 463 -71 l 463 -25 l 321 -25 l 418 40 l 463 40 z "},"→":{"ha":694,"x_min":129,"x_max":569,"o":"m 129 1222 l 569 1222 l 569 -167 l 129 -167 l 129 1222 m 463 1083 l 463 1129 l 233 1129 l 233 1083 l 324 1083 l 324 1032 l 232 1032 l 232 986 l 463 986 l 463 1032 l 371 1032 l 371 1083 l 463 1083 m 371 853 l 371 950 l 232 950 l 232 806 l 463 806 l 463 853 l 371 853 m 278 903 l 324 903 l 324 853 l 278 853 l 278 903 m 463 722 l 463 768 l 232 768 l 232 722 l 324 722 l 324 671 l 232 671 l 232 625 l 371 625 l 371 722 l 463 722 m 463 546 l 463 685 l 417 685 l 417 593 l 232 593 l 232 546 l 463 546 m 463 358 l 463 515 l 324 515 l 324 438 l 371 438 l 371 469 l 417 469 l 417 404 l 278 404 l 278 515 l 232 515 l 232 358 l 463 358 m 463 118 l 463 275 l 232 275 l 232 118 l 463 118 m 278 229 l 417 229 l 417 164 l 278 164 l 278 229 m 463 40 l 463 86 l 232 86 l 232 40 l 329 40 l 232 -25 l 232 -71 l 463 -71 l 463 -25 l 321 -25 l 418 40 l 463 40 z "},"∓":{"ha":694,"x_min":129,"x_max":569,"o":"m 129 1222 l 569 1222 l 569 -167 l 129 -167 l 129 1222 m 463 1083 l 463 1129 l 233 1129 l 233 1083 l 324 1083 l 324 1032 l 232 1032 l 232 986 l 463 986 l 463 1032 l 371 1032 l 371 1083 l 463 1083 m 371 853 l 371 950 l 232 950 l 232 806 l 463 806 l 463 853 l 371 853 m 278 903 l 324 903 l 324 853 l 278 853 l 278 903 m 463 722 l 463 768 l 232 768 l 232 722 l 324 722 l 324 671 l 232 671 l 232 625 l 371 625 l 371 722 l 463 722 m 463 546 l 463 685 l 417 685 l 417 593 l 232 593 l 232 546 l 463 546 m 463 358 l 463 515 l 324 515 l 324 438 l 371 438 l 371 469 l 417 469 l 417 404 l 278 404 l 278 515 l 232 515 l 232 358 l 463 358 m 463 118 l 463 275 l 232 275 l 232 118 l 463 118 m 278 229 l 417 229 l 417 164 l 278 164 l 278 229 m 463 40 l 463 86 l 232 86 l 232 40 l 329 40 l 232 -25 l 232 -71 l 463 -71 l 463 -25 l 321 -25 l 418 40 l 463 40 z "},"∔":{"ha":694,"x_min":129,"x_max":569,"o":"m 129 1222 l 569 1222 l 569 -167 l 129 -167 l 129 1222 m 463 1083 l 463 1129 l 233 1129 l 233 1083 l 324 1083 l 324 1032 l 232 1032 l 232 986 l 463 986 l 463 1032 l 371 1032 l 371 1083 l 463 1083 m 371 853 l 371 950 l 232 950 l 232 806 l 463 806 l 463 853 l 371 853 m 278 903 l 324 903 l 324 853 l 278 853 l 278 903 m 463 722 l 463 768 l 232 768 l 232 722 l 324 722 l 324 671 l 232 671 l 232 625 l 371 625 l 371 722 l 463 722 m 463 546 l 463 685 l 417 685 l 417 593 l 232 593 l 232 546 l 463 546 m 463 358 l 463 515 l 324 515 l 324 438 l 371 438 l 371 469 l 417 469 l 417 404 l 278 404 l 278 515 l 232 515 l 232 358 l 463 358 m 463 118 l 463 275 l 232 275 l 232 118 l 463 118 m 278 229 l 417 229 l 417 164 l 278 164 l 278 229 m 463 40 l 463 86 l 232 86 l 232 40 l 329 40 l 232 -25 l 232 -71 l 463 -71 l 463 -25 l 321 -25 l 418 40 l 463 40 z "}," ":{"ha":389,"x_min":0,"x_max":0,"o":""},"!":{"ha":456,"x_min":83,"x_max":372,"o":"m 314 325 q 324 314 314 318 q 342 310 333 310 l 342 283 l 114 283 l 114 310 q 132 314 122 310 q 142 325 142 318 l 122 1051 q 109 1063 122 1058 q 83 1067 96 1067 l 83 1093 l 372 1093 l 372 1067 q 347 1063 360 1067 q 333 1051 333 1058 l 314 325 m 226 176 q 320 138 282 176 q 358 43 358 99 q 319 -50 358 -11 q 225 -89 281 -89 q 133 -50 171 -89 q 94 43 94 -11 q 133 138 94 100 q 226 176 171 176 z "},"\"":{"ha":628,"x_min":42,"x_max":586,"o":"m 392 996 q 380 1007 392 1003 q 358 1011 368 1011 l 358 1038 l 586 1038 l 586 1011 q 565 1007 576 1011 q 553 996 553 1003 l 531 686 q 540 675 531 679 q 558 671 549 671 l 558 644 l 386 644 l 386 671 q 405 675 396 671 q 414 686 414 679 l 392 996 m 75 996 q 63 1007 75 1003 q 42 1011 51 1011 l 42 1038 l 269 1038 l 269 1011 q 248 1007 260 1011 q 236 996 236 1003 l 214 686 q 223 675 214 679 q 242 671 232 671 l 242 644 l 69 644 l 69 671 q 88 675 79 671 q 97 686 97 679 l 75 996 z "},"#":{"ha":1076,"x_min":24,"x_max":999,"o":"m 999 747 l 999 531 l 972 531 q 968 549 972 539 q 957 558 964 558 l 807 558 l 768 386 l 924 386 q 935 396 931 386 q 939 414 939 406 l 965 414 l 965 197 l 939 197 q 935 215 939 206 q 924 225 931 225 l 731 225 l 674 -28 q 683 -46 671 -36 q 708 -56 694 -56 l 708 -82 l 432 -82 l 432 -53 q 475 -37 471 -53 l 535 225 l 367 225 l 310 -28 q 319 -46 307 -36 q 344 -56 331 -56 l 344 -82 l 68 -82 l 68 -53 q 111 -37 107 -53 l 171 225 l 65 225 q 54 215 58 225 q 50 197 50 206 l 24 197 l 24 414 l 50 414 q 54 396 50 406 q 65 386 58 386 l 207 386 l 246 558 l 99 558 q 88 549 92 558 q 83 531 83 539 l 57 531 l 57 747 l 83 747 q 88 729 83 739 q 99 719 92 719 l 283 719 l 339 967 q 330 985 342 975 q 304 994 318 994 l 304 1021 l 581 1021 l 581 992 q 538 976 542 992 l 479 719 l 647 719 l 703 967 q 694 985 706 975 q 668 994 682 994 l 668 1021 l 944 1021 l 944 992 q 901 976 906 992 l 843 719 l 957 719 q 968 729 964 719 q 972 747 972 739 l 999 747 m 404 386 l 571 386 l 610 558 l 443 558 l 404 386 z "},"$":{"ha":921,"x_min":19,"x_max":868,"o":"m 868 288 q 828 140 868 210 q 713 26 789 71 q 529 -25 636 -18 l 529 -126 l 467 -126 l 467 -25 q 259 35 356 -19 q 72 185 163 90 q 65 188 69 188 q 38 172 53 188 l 19 192 l 213 374 l 231 354 q 215 335 222 347 q 213 317 208 322 q 331 203 269 244 q 467 154 393 161 l 467 456 l 365 493 q 205 596 263 531 q 147 753 147 661 q 234 963 147 883 q 467 1050 321 1043 l 467 1135 l 529 1135 l 529 1049 q 668 1014 610 1043 q 794 929 726 985 q 800 928 796 928 q 816 933 807 928 q 831 943 825 938 l 849 925 l 676 756 l 658 775 q 669 791 665 782 q 667 804 672 800 q 529 872 597 861 l 529 615 l 594 592 q 740 524 682 560 q 833 431 799 489 q 868 288 868 374 m 467 638 l 467 875 q 369 838 404 869 q 333 761 333 807 q 356 693 333 717 q 426 653 379 669 l 467 638 m 529 156 q 637 206 594 165 q 679 294 679 246 q 536 429 679 376 l 529 432 l 529 156 z "},"%":{"ha":1389,"x_min":82,"x_max":1307,"o":"m 996 994 q 979 1022 996 1006 l 996 1042 l 1186 878 l 1168 857 q 1150 868 1161 864 q 1133 867 1139 872 l 354 -26 q 351 -33 351 -29 q 357 -47 351 -39 q 368 -60 363 -54 l 350 -79 l 164 85 l 181 106 q 199 94 189 99 q 215 96 210 90 l 993 989 l 996 994 m 333 508 q 206 542 264 508 q 115 633 149 575 q 82 758 82 690 q 115 884 82 826 q 206 976 149 942 q 333 1010 264 1010 q 459 976 401 1010 q 551 884 517 942 q 585 758 585 826 q 551 633 585 690 q 459 542 517 575 q 333 508 401 508 m 333 664 q 399 692 372 664 q 426 758 426 719 q 399 825 426 797 q 333 853 372 853 q 267 825 294 853 q 239 758 239 797 q 267 692 239 719 q 333 664 294 664 m 1056 -24 q 928 10 986 -24 q 837 102 871 44 q 803 228 803 160 q 837 353 803 296 q 928 445 871 411 q 1056 479 986 479 q 1181 445 1124 479 q 1273 353 1239 411 q 1307 228 1307 296 q 1273 102 1307 160 q 1181 10 1239 44 q 1056 -24 1124 -24 m 1056 133 q 1122 161 1094 133 q 1149 228 1149 189 q 1122 294 1149 267 q 1056 322 1094 322 q 989 294 1017 322 q 961 228 961 267 q 989 161 961 189 q 1056 133 1017 133 z "},"&":{"ha":1111,"x_min":85,"x_max":1058,"o":"m 1022 33 q 1043 27 1029 26 q 1058 28 1057 28 l 1058 1 l 742 1 l 742 28 q 764 32 761 28 q 761 44 767 36 l 710 106 q 563 6 639 40 q 401 -28 488 -28 q 240 9 313 -28 q 126 108 167 46 q 85 246 85 171 q 118 385 85 325 q 219 493 151 444 q 319 565 288 542 q 240 686 268 628 q 213 806 213 744 q 288 1004 213 935 q 482 1074 364 1074 q 617 1041 558 1074 q 708 950 676 1008 q 740 817 740 892 q 703 681 740 742 q 588 563 665 621 l 572 551 l 726 375 q 810 488 771 429 q 811 493 811 489 q 806 506 811 500 q 794 517 800 513 l 810 539 l 994 414 l 981 393 q 947 396 954 406 q 839 246 893 317 l 1022 33 m 476 911 q 415 885 439 911 q 392 819 392 858 q 411 749 392 783 q 468 669 431 714 q 557 817 557 736 q 535 886 557 861 q 476 911 514 911 m 400 149 q 597 239 492 149 l 425 442 q 321 367 371 404 q 276 317 288 343 q 264 260 264 292 q 302 178 264 208 q 400 149 340 149 z "},"'":{"ha":311,"x_min":42,"x_max":269,"o":"m 75 996 q 63 1007 75 1003 q 42 1011 51 1011 l 42 1038 l 269 1038 l 269 1011 q 248 1007 260 1011 q 236 996 236 1003 l 214 686 q 223 675 214 679 q 242 671 232 671 l 242 644 l 69 644 l 69 671 q 88 675 79 671 q 97 686 97 679 l 75 996 z "},"(":{"ha":560,"x_min":111,"x_max":532,"o":"m 472 -97 l 381 -174 l 303 -236 l 285 -214 q 301 -193 296 -206 q 307 -171 307 -181 q 303 -158 307 -162 q 163 99 215 -53 q 111 414 111 251 q 166 737 111 581 q 313 997 221 893 q 315 1004 315 1000 q 297 1032 315 1014 l 317 1054 l 472 925 l 524 883 l 507 864 q 482 872 497 872 q 463 865 469 872 q 356 655 399 778 q 313 414 313 532 q 356 173 313 296 q 463 -37 399 50 q 476 -42 467 -42 q 515 -29 497 -42 l 532 -49 l 472 -97 z "},")":{"ha":560,"x_min":22,"x_max":449,"o":"m 192 -176 l 100 -100 l 22 -37 l 42 -14 q 83 -29 58 -29 q 103 -24 99 -29 q 206 184 165 64 q 247 421 247 304 q 204 662 247 539 q 97 872 161 785 q 83 876 93 876 q 44 864 63 876 l 28 883 l 88 932 l 179 1008 l 257 1071 l 275 1049 q 258 1028 264 1040 q 253 1006 253 1015 q 257 993 253 997 q 397 735 344 888 q 449 421 449 583 q 394 102 449 257 q 251 -157 340 -53 q 251 -182 246 -164 q 267 -210 257 -200 l 250 -228 l 192 -176 z "},"*":{"ha":568,"x_min":69,"x_max":499,"o":"m 435 958 l 499 851 l 386 800 l 497 749 l 436 640 l 335 711 l 346 589 l 222 589 l 233 713 l 133 642 l 69 749 l 182 800 l 71 851 l 132 960 l 233 889 l 222 1011 l 346 1011 l 335 888 l 435 958 z "},"+":{"ha":833,"x_min":69,"x_max":764,"o":"m 764 594 l 764 378 l 738 378 q 733 396 738 386 q 722 406 729 406 l 497 406 l 497 181 q 507 169 497 174 q 525 165 517 165 l 525 139 l 308 139 l 308 165 q 326 169 317 165 q 336 181 336 174 l 336 406 l 111 406 q 100 396 104 406 q 96 378 96 386 l 69 378 l 69 594 l 96 594 q 100 576 96 586 q 111 567 104 567 l 336 567 l 336 792 q 326 803 336 799 q 308 807 317 807 l 308 833 l 525 833 l 525 807 q 507 803 517 807 q 497 792 497 799 l 497 567 l 722 567 q 733 576 729 567 q 738 594 738 586 l 764 594 z "},",":{"ha":463,"x_min":69,"x_max":324,"o":"m 69 104 q 106 187 69 153 q 193 221 142 221 q 288 182 253 221 q 324 64 324 143 q 252 -107 324 -57 q 76 -157 181 -157 l 76 -121 q 180 -83 136 -111 q 224 -12 224 -54 q 189 -15 211 -15 q 103 19 138 -15 q 69 104 69 53 z "},"-":{"ha":531,"x_min":42,"x_max":489,"o":"m 447 397 q 458 406 454 397 q 463 422 463 414 l 489 422 l 489 232 l 463 232 q 458 249 463 240 q 447 257 454 257 l 83 257 q 72 249 76 257 q 68 232 68 240 l 42 232 l 42 422 l 68 422 q 72 406 68 414 q 83 397 76 397 l 447 397 z "},".":{"ha":444,"x_min":69,"x_max":306,"o":"m 189 -15 q 103 19 138 -15 q 69 104 69 53 q 104 187 69 153 q 189 221 139 221 q 272 187 238 221 q 306 104 306 153 q 272 19 306 53 q 189 -15 238 -15 z "},"/":{"ha":697,"x_min":7,"x_max":690,"o":"m 7 -82 l 521 1118 l 690 1118 l 176 -82 l 7 -82 z "},":":{"ha":431,"x_min":97,"x_max":333,"o":"m 217 436 q 131 470 165 436 q 97 556 97 504 q 132 638 97 604 q 217 672 167 672 q 299 638 265 672 q 333 556 333 604 q 299 470 333 504 q 217 436 265 436 m 217 -15 q 131 19 165 -15 q 97 104 97 53 q 132 187 97 153 q 217 221 167 221 q 299 187 265 221 q 333 104 333 153 q 299 19 333 53 q 217 -15 265 -15 z "},";":{"ha":449,"x_min":97,"x_max":351,"o":"m 217 436 q 131 470 165 436 q 97 556 97 504 q 132 638 97 604 q 217 672 167 672 q 299 638 265 672 q 333 556 333 604 q 299 470 333 504 q 217 436 265 436 m 97 104 q 133 187 97 153 q 221 221 169 221 q 316 182 281 221 q 351 64 351 143 q 280 -107 351 -57 q 104 -157 208 -157 l 104 -121 q 208 -83 164 -111 q 251 -12 251 -54 q 217 -15 239 -15 q 131 19 165 -15 q 97 104 97 53 z "},"<":{"ha":833,"x_min":103,"x_max":715,"o":"m 103 625 l 715 886 l 715 747 l 197 526 l 715 306 l 715 167 l 103 428 l 103 625 z "},"=":{"ha":833,"x_min":69,"x_max":764,"o":"m 111 551 q 100 542 104 551 q 96 525 96 533 l 69 525 l 69 732 l 96 732 q 100 715 96 724 q 111 706 104 706 l 722 706 q 733 715 729 706 q 738 732 738 724 l 764 732 l 764 525 l 738 525 q 733 542 738 533 q 722 551 729 551 l 111 551 m 111 267 q 100 258 104 267 q 96 240 96 249 l 69 240 l 69 447 l 96 447 q 100 430 96 439 q 111 421 104 421 l 722 421 q 733 430 729 421 q 738 447 738 439 l 764 447 l 764 240 l 738 240 q 733 258 738 249 q 722 267 729 267 l 111 267 z "},">":{"ha":833,"x_min":103,"x_max":715,"o":"m 103 747 l 103 886 l 715 625 l 715 428 l 103 167 l 103 306 l 621 526 l 103 747 z "},"?":{"ha":910,"x_min":97,"x_max":857,"o":"m 646 478 q 576 403 594 440 q 560 314 557 365 q 574 303 560 307 q 599 299 588 299 l 599 272 l 329 272 l 329 299 q 353 303 340 299 q 365 314 365 307 q 382 425 369 381 q 426 509 394 469 q 517 589 457 549 l 547 610 q 618 660 593 639 q 660 715 643 682 q 676 796 676 749 q 631 906 676 860 q 496 953 586 953 q 368 912 419 953 q 306 785 317 871 l 306 783 q 315 773 306 776 q 333 769 324 769 l 333 743 l 97 743 l 97 769 q 118 774 107 769 q 129 785 129 778 q 188 964 138 889 q 317 1078 238 1039 q 492 1117 396 1117 q 685 1074 603 1117 q 813 960 768 1032 q 857 806 857 889 q 834 669 857 722 q 772 578 811 615 q 646 478 732 542 m 472 176 q 566 138 528 176 q 604 43 604 99 q 565 -50 604 -11 q 471 -89 526 -89 q 378 -50 417 -89 q 340 43 340 -11 q 378 138 340 100 q 472 176 417 176 z "},"@":{"ha":1139,"x_min":15,"x_max":1124,"o":"m 549 672 q 733 599 663 672 l 736 644 q 730 656 736 651 q 717 660 724 660 l 717 686 l 876 686 l 876 660 q 862 656 869 660 q 854 644 854 651 l 836 324 q 853 251 833 275 q 906 226 872 226 q 949 250 926 226 q 988 321 972 274 q 1004 435 1004 368 q 953 642 1004 551 q 805 784 901 733 q 576 835 708 835 q 355 776 456 835 q 196 614 254 717 q 138 386 138 511 q 197 181 138 276 q 353 27 256 85 q 561 -31 451 -31 q 811 40 703 -31 q 815 51 815 43 q 811 64 815 60 l 832 81 l 926 -37 l 906 -54 q 894 -46 901 -49 q 881 -47 886 -43 q 730 -113 814 -90 q 553 -136 646 -136 q 282 -65 406 -136 q 87 126 158 7 q 15 382 15 246 q 91 667 15 540 q 298 867 167 794 q 588 939 429 939 q 864 876 742 939 q 1055 700 986 813 q 1124 443 1124 588 q 1092 261 1124 335 q 1008 152 1060 188 q 900 117 957 117 q 810 141 850 117 q 747 207 771 165 q 549 114 671 114 q 400 149 465 114 q 297 247 335 183 q 260 392 260 310 q 298 539 260 475 q 402 638 336 603 q 549 672 468 672 m 549 232 q 667 278 619 232 q 714 390 714 325 q 667 508 714 463 q 549 554 621 554 q 431 509 476 554 q 385 392 385 464 q 432 275 385 318 q 549 232 479 232 z "},"A":{"ha":1135,"x_min":14,"x_max":1121,"o":"m 1088 39 q 1121 26 1092 26 l 1121 0 l 839 0 l 839 26 q 864 35 857 26 q 867 51 871 43 l 790 247 l 338 247 l 261 51 l 260 47 q 267 33 260 39 q 288 26 275 26 l 288 0 l 14 0 l 14 26 q 47 39 42 26 l 433 978 q 438 993 438 986 q 426 1010 438 1006 q 403 1015 415 1015 l 403 1042 l 726 1042 l 726 1015 q 703 1010 714 1015 q 692 993 692 1006 q 696 978 692 986 l 1088 39 m 564 825 l 400 407 l 728 407 l 564 825 z "},"B":{"ha":901,"x_min":69,"x_max":846,"o":"m 644 594 q 737 541 690 581 q 815 440 783 501 q 846 304 846 379 q 807 154 846 224 q 692 42 768 85 q 510 0 615 0 l 69 0 l 69 26 q 90 31 79 26 q 100 42 100 35 l 100 1000 q 90 1011 100 1007 q 69 1015 79 1015 l 69 1042 l 390 1042 q 555 1006 483 1042 q 666 908 626 971 q 706 764 706 844 q 644 594 706 660 m 281 878 l 281 632 l 368 632 q 487 666 454 632 q 519 761 519 700 q 477 844 519 810 q 368 878 435 878 l 281 878 m 469 164 q 620 207 575 164 q 665 310 665 250 q 626 420 665 372 q 493 468 588 468 l 281 468 l 281 164 l 469 164 z "},"C":{"ha":1063,"x_min":42,"x_max":1056,"o":"m 585 -14 q 311 56 436 -14 q 114 251 186 126 q 42 528 42 375 q 114 813 42 689 q 308 1003 186 936 q 576 1071 431 1071 q 813 1022 717 1071 q 996 883 910 972 q 1004 881 999 881 q 1033 893 1013 881 l 1050 872 l 858 721 l 842 742 q 855 756 850 747 q 854 769 860 765 q 733 856 796 826 q 579 886 669 886 q 406 840 485 886 q 281 711 326 793 q 235 528 235 629 q 283 351 235 431 q 413 225 332 271 q 585 179 493 179 q 732 209 671 179 q 847 299 793 239 l 850 304 q 844 320 850 311 q 831 333 838 329 l 849 353 l 1056 179 l 1039 158 q 1018 171 1031 165 q 1001 171 1006 176 q 818 31 914 76 q 585 -14 722 -14 z "},"D":{"ha":1015,"x_min":69,"x_max":974,"o":"m 461 1042 q 732 978 617 1042 q 910 796 847 915 q 974 513 974 676 q 906 240 974 356 q 719 62 839 124 q 444 0 599 0 l 69 0 l 69 26 q 90 31 79 26 q 100 42 100 35 l 100 1000 q 90 1011 100 1007 q 69 1015 79 1015 l 69 1042 l 461 1042 m 418 164 q 624 208 539 164 q 753 331 710 251 q 797 515 797 410 q 708 779 797 681 q 435 878 619 878 l 282 878 l 282 164 l 418 164 z "},"E":{"ha":846,"x_min":69,"x_max":818,"o":"m 818 194 l 818 -28 l 792 -28 q 788 -8 792 -18 q 776 1 783 1 l 69 1 l 69 28 q 90 32 79 28 q 100 43 100 36 l 100 1001 q 90 1013 100 1008 q 69 1017 79 1017 l 69 1043 l 740 1043 q 751 1053 747 1043 q 756 1072 756 1063 l 782 1072 l 782 850 l 756 850 q 751 869 756 860 q 740 879 747 879 l 279 879 l 279 635 l 672 635 q 683 644 679 635 q 688 664 688 654 l 714 664 l 714 442 l 688 442 q 683 461 688 451 q 672 471 679 471 l 279 471 l 279 165 l 776 165 q 788 175 783 165 q 792 194 792 185 l 818 194 z "},"F":{"ha":801,"x_min":69,"x_max":774,"o":"m 774 1071 l 774 849 l 747 849 q 743 868 747 858 q 732 878 739 878 l 282 878 l 282 632 l 646 632 q 657 642 653 632 q 661 661 661 651 l 688 661 l 688 439 l 661 439 q 657 458 661 449 q 646 468 653 468 l 282 468 l 282 42 q 292 31 282 35 q 314 26 303 26 l 314 0 l 69 0 l 69 26 q 91 31 81 26 q 101 42 101 35 l 101 1000 q 91 1011 101 1007 q 71 1015 81 1015 l 71 1042 l 732 1042 q 743 1051 739 1042 q 747 1071 747 1061 l 774 1071 z "},"G":{"ha":1118,"x_min":42,"x_max":1090,"o":"m 1090 167 l 986 103 q 564 -14 788 -14 q 297 58 417 -14 q 110 256 178 131 q 42 532 42 381 q 117 813 42 690 q 319 1004 192 936 q 597 1072 446 1072 q 795 1035 707 1072 q 969 932 883 999 q 975 931 971 931 q 992 937 982 931 q 1008 949 1003 943 l 1026 929 l 842 746 l 822 764 q 835 783 831 772 q 835 799 840 793 q 599 897 722 897 q 418 853 501 897 q 285 726 335 808 q 236 532 236 643 q 278 348 236 431 q 394 217 319 265 q 565 168 469 168 q 849 244 728 168 l 849 447 l 597 447 q 586 438 590 447 q 582 418 582 428 l 556 418 l 556 640 l 582 640 q 586 621 582 631 q 597 611 590 611 l 1058 611 l 1058 585 q 1038 581 1049 585 q 1028 569 1028 576 l 1028 183 q 1039 176 1028 176 q 1076 189 1056 176 l 1090 167 z "},"H":{"ha":1061,"x_min":69,"x_max":992,"o":"m 992 1015 q 970 1011 982 1015 q 958 1000 958 1007 l 958 42 q 970 31 958 35 q 992 26 982 26 l 992 0 l 731 0 l 731 26 q 752 31 740 26 q 764 42 764 35 l 764 461 l 297 461 l 297 42 q 309 31 297 35 q 331 26 321 26 l 331 0 l 69 0 l 69 26 q 91 31 79 26 q 103 42 103 35 l 103 1000 q 91 1011 103 1007 q 69 1015 79 1015 l 69 1042 l 331 1042 l 331 1015 q 309 1011 321 1015 q 297 1000 297 1007 l 297 635 l 764 635 l 764 1000 q 752 1011 764 1007 q 731 1015 740 1015 l 731 1042 l 992 1042 l 992 1015 z "},"I":{"ha":394,"x_min":69,"x_max":325,"o":"m 103 1000 q 92 1011 103 1007 q 69 1015 81 1015 l 69 1042 l 325 1042 l 325 1015 q 303 1011 314 1015 q 292 1000 292 1007 l 292 42 q 303 31 292 35 q 325 26 314 26 l 325 0 l 69 0 l 69 26 q 92 31 81 26 q 103 42 103 35 l 103 1000 z "},"J":{"ha":657,"x_min":14,"x_max":588,"o":"m 285 -15 q 176 3 226 -15 q 64 61 125 21 q 60 63 63 63 q 47 56 54 63 q 35 44 39 50 l 14 60 l 144 251 l 167 236 q 158 211 158 225 q 163 200 158 204 q 215 169 194 176 q 269 163 236 163 q 342 199 311 163 q 374 299 374 235 l 374 1000 q 363 1011 374 1007 q 342 1015 351 1015 l 342 1042 l 588 1042 l 588 1015 q 567 1011 578 1015 q 556 1000 556 1007 l 556 293 q 484 65 556 144 q 285 -15 413 -15 z "},"K":{"ha":983,"x_min":69,"x_max":976,"o":"m 940 31 q 960 25 946 24 q 976 26 975 26 l 976 0 l 663 0 l 663 26 q 685 31 682 26 q 681 42 688 35 l 324 439 l 278 392 l 278 42 q 288 31 278 35 q 308 26 299 26 l 308 0 l 69 0 l 69 26 q 90 31 79 26 q 100 42 100 35 l 100 1000 q 90 1011 100 1007 q 69 1015 79 1015 l 69 1042 l 308 1042 l 308 1015 q 288 1011 299 1015 q 278 1000 278 1007 l 278 636 l 642 1003 q 644 1008 644 1006 q 622 1015 644 1015 l 622 1042 l 938 1042 l 938 1015 l 911 1017 q 892 1013 899 1017 l 454 569 l 940 31 z "},"L":{"ha":814,"x_min":69,"x_max":772,"o":"m 772 199 l 772 -29 l 746 -29 q 742 -10 746 -21 q 731 0 738 0 l 71 0 l 71 26 q 91 31 81 26 q 101 42 101 35 l 101 1000 q 90 1011 101 1007 q 69 1015 79 1015 l 69 1042 l 319 1042 l 319 1015 q 299 1011 310 1015 q 288 1000 288 1007 l 288 169 l 731 169 q 742 180 738 169 q 746 199 746 190 l 772 199 z "},"M":{"ha":1375,"x_min":69,"x_max":1306,"o":"m 1274 42 q 1284 31 1274 35 q 1306 26 1294 26 l 1306 0 l 1063 0 l 1063 26 q 1084 31 1074 26 q 1094 42 1094 35 l 1094 838 l 688 -53 l 282 840 l 282 42 q 292 31 282 35 q 314 26 303 26 l 314 0 l 69 0 l 69 26 q 91 31 81 26 q 101 42 101 35 l 101 1000 q 91 1011 101 1007 q 71 1015 81 1015 l 71 1042 l 429 1042 l 429 1015 q 408 1008 413 1015 q 407 990 403 1000 l 689 335 l 975 990 q 967 1007 978 999 q 939 1015 956 1015 l 939 1042 l 1304 1042 l 1304 1015 q 1284 1011 1294 1015 q 1274 1000 1274 1007 l 1274 42 z "},"N":{"ha":1078,"x_min":69,"x_max":1008,"o":"m 1008 1015 q 988 1011 999 1015 q 976 1000 976 1007 l 976 42 q 987 31 976 35 q 1007 26 997 26 l 1007 0 l 763 0 l 763 26 q 783 44 796 26 l 290 725 l 290 42 q 301 31 290 35 q 324 26 313 26 l 324 0 l 69 0 l 69 26 q 92 31 81 26 q 103 42 103 35 l 103 1000 q 92 1011 103 1007 q 72 1015 82 1015 l 72 1042 l 324 1042 l 324 1015 q 303 997 290 1015 l 810 294 l 792 1000 q 780 1011 792 1007 q 758 1015 768 1015 l 758 1042 l 1008 1042 l 1008 1015 z "},"O":{"ha":1188,"x_min":42,"x_max":1146,"o":"m 597 -22 q 309 52 436 -22 q 112 249 182 126 q 42 510 42 372 q 108 777 42 649 q 301 986 175 906 q 597 1067 428 1067 q 888 990 763 1067 q 1079 787 1013 914 q 1146 510 1146 660 q 1080 253 1146 376 q 889 54 1014 131 q 597 -22 764 -22 m 599 161 q 785 205 703 161 q 915 328 868 249 q 961 510 961 408 q 917 701 961 617 q 789 835 872 786 q 592 885 706 885 q 406 835 488 885 q 279 700 325 786 q 233 510 233 614 q 287 322 233 401 q 424 202 340 243 q 599 161 508 161 z "},"P":{"ha":929,"x_min":69,"x_max":874,"o":"m 513 1042 q 704 1001 622 1042 q 830 890 786 961 q 874 726 874 818 q 825 555 874 625 q 697 449 776 485 q 528 414 618 414 l 286 414 l 286 42 q 297 31 286 35 q 318 26 308 26 l 318 0 l 69 0 l 69 26 q 90 31 79 26 q 101 42 101 35 l 101 1000 q 91 1011 101 1007 q 71 1015 81 1015 l 71 1042 l 513 1042 m 539 590 q 625 612 588 590 q 682 667 663 633 q 701 736 701 700 q 656 832 701 790 q 540 874 610 874 l 286 874 l 286 590 l 539 590 z "},"Q":{"ha":1243,"x_min":42,"x_max":1160,"o":"m 1160 131 l 990 -44 l 972 -26 q 983 -9 979 -19 q 982 6 988 1 l 901 81 q 599 -21 763 -21 q 312 51 439 -21 q 113 246 185 124 q 42 513 42 368 q 112 790 42 663 q 310 992 182 917 q 606 1068 439 1068 q 881 992 761 1068 q 1067 790 1001 917 q 1133 513 1133 663 q 1106 359 1133 438 q 1028 210 1079 281 l 1107 136 q 1113 135 1108 135 q 1128 140 1119 135 q 1140 150 1136 144 l 1160 131 m 603 154 q 776 197 697 154 l 631 332 q 625 333 629 333 q 610 328 618 333 q 597 318 601 324 l 578 338 l 749 511 l 767 493 q 756 476 760 486 q 757 461 751 465 l 910 319 q 965 508 965 406 q 919 705 965 615 q 790 847 872 794 q 603 900 707 900 q 410 851 496 900 q 276 714 324 801 q 228 518 228 626 q 276 324 228 407 q 410 198 325 242 q 603 154 496 154 z "},"R":{"ha":946,"x_min":69,"x_max":918,"o":"m 881 36 q 918 26 886 26 l 918 0 l 636 0 l 636 26 q 663 33 656 26 q 664 47 669 40 l 431 440 l 288 440 l 288 42 q 299 31 288 35 q 319 26 310 26 l 319 0 l 69 0 l 69 26 q 90 31 79 26 q 101 42 101 35 l 101 1000 q 91 1011 101 1007 q 71 1015 81 1015 l 71 1042 l 494 1042 q 772 959 678 1042 q 865 746 865 876 q 799 551 865 625 q 629 453 733 478 l 881 36 m 288 881 l 288 608 l 515 608 q 644 649 601 608 q 688 746 688 689 q 639 841 688 801 q 519 881 590 881 l 288 881 z "},"S":{"ha":921,"x_min":19,"x_max":868,"o":"m 493 -26 q 271 30 374 -26 q 72 185 168 86 q 65 188 69 188 q 38 172 53 188 l 19 192 l 213 374 l 231 354 q 215 335 222 347 q 213 317 208 322 q 494 153 342 153 q 590 174 547 153 q 656 227 632 194 q 679 294 679 260 q 536 429 679 376 l 365 493 q 205 596 263 531 q 147 753 147 661 q 190 910 147 843 q 310 1014 232 978 q 490 1050 388 1050 q 653 1020 588 1050 q 794 929 719 990 q 800 928 796 928 q 816 933 807 928 q 831 943 825 938 l 849 925 l 676 756 l 658 775 q 669 791 665 782 q 667 804 672 800 q 488 876 576 876 q 375 844 417 876 q 333 761 333 811 q 356 693 333 717 q 426 653 379 669 l 594 592 q 740 524 682 560 q 833 431 799 489 q 868 288 868 374 q 824 133 868 204 q 695 17 781 61 q 493 -26 610 -26 z "},"T":{"ha":935,"x_min":21,"x_max":914,"o":"m 914 1069 l 914 856 l 888 856 q 883 874 888 864 q 872 883 879 883 l 563 883 l 563 42 q 574 31 563 35 q 596 26 585 26 l 596 0 l 340 0 l 340 26 q 363 31 351 26 q 374 42 374 35 l 374 883 l 63 883 q 51 874 56 883 q 47 856 47 864 l 21 856 l 21 1069 l 47 1069 q 51 1051 47 1061 q 63 1042 56 1042 l 872 1042 q 883 1051 879 1042 q 888 1069 888 1061 l 914 1069 z "},"U":{"ha":1065,"x_min":69,"x_max":996,"o":"m 543 -15 q 315 38 415 -15 q 160 191 215 90 q 104 428 104 292 l 104 1000 q 92 1011 104 1007 q 69 1015 81 1015 l 69 1042 l 338 1042 l 338 1015 q 315 1011 326 1015 q 303 1000 303 1007 l 303 469 q 363 239 303 319 q 543 158 424 158 q 717 242 674 158 q 761 458 761 325 l 761 1000 q 749 1011 761 1007 q 726 1015 738 1015 l 726 1042 l 996 1042 l 996 1015 q 973 1011 985 1015 q 961 1000 961 1007 l 961 453 q 860 108 961 232 q 543 -15 760 -15 z "},"V":{"ha":1083,"x_min":4,"x_max":1078,"o":"m 1078 1015 q 1044 1003 1049 1015 l 646 64 q 643 49 643 58 q 651 31 643 36 q 669 26 660 26 l 669 0 l 413 0 l 413 26 q 431 31 422 26 q 439 49 439 36 q 436 64 439 58 l 38 1003 q 4 1015 33 1015 l 4 1042 l 274 1042 l 274 1015 q 251 1007 257 1015 q 250 990 246 999 l 546 271 l 833 990 q 824 1007 836 999 q 796 1015 813 1015 l 796 1042 l 1078 1042 l 1078 1015 z "},"W":{"ha":1389,"x_min":14,"x_max":1375,"o":"m 549 68 q 558 35 542 44 q 590 26 574 26 l 590 0 l 264 0 l 264 26 q 290 33 276 26 q 304 56 304 39 q 303 67 304 63 l 42 1001 q 14 1015 39 1015 l 14 1042 l 285 1042 l 285 1015 q 260 1006 268 1015 q 253 988 251 997 l 426 278 l 588 974 q 589 985 589 978 q 574 1008 589 1001 q 544 1015 558 1015 l 544 1042 l 875 1042 l 875 1015 q 842 1006 858 1015 q 832 974 825 997 l 990 311 l 1126 988 q 1113 1006 1129 996 q 1079 1015 1097 1015 l 1079 1042 l 1375 1042 l 1375 1015 q 1347 1001 1351 1015 l 1090 67 q 1089 56 1089 63 q 1102 33 1089 39 q 1128 26 1115 26 l 1128 0 l 825 0 l 825 26 q 856 35 840 26 q 867 68 872 44 l 715 769 l 549 68 z "},"X":{"ha":1106,"x_min":14,"x_max":1092,"o":"m 1092 1015 l 1075 1015 q 1049 1010 1053 1015 l 663 524 l 1028 33 q 1051 26 1033 26 q 1069 26 1068 26 l 1069 0 l 775 0 l 775 26 q 792 33 792 26 q 786 44 792 36 l 542 364 l 296 44 q 293 38 293 39 q 301 30 293 33 q 321 26 308 26 l 321 0 l 14 0 l 14 26 l 24 26 q 56 33 49 26 l 417 513 l 56 1008 q 33 1015 50 1015 q 14 1015 15 1015 l 14 1042 l 283 1042 l 283 1015 q 267 1010 267 1015 q 269 1004 267 1008 q 274 999 272 1000 l 543 657 l 808 997 q 811 1004 811 1003 q 785 1015 811 1015 l 785 1042 l 1092 1042 l 1092 1015 z "},"Y":{"ha":1064,"x_min":14,"x_max":1050,"o":"m 1050 1015 l 1042 1015 q 1010 1007 1015 1015 l 636 471 l 636 42 q 648 31 636 35 q 671 26 660 26 l 671 0 l 399 0 l 399 26 q 422 31 410 26 q 433 42 433 35 l 433 463 l 54 1007 q 37 1014 50 1013 q 14 1015 24 1015 l 14 1042 l 300 1042 l 300 1015 q 283 1008 283 1015 q 288 996 283 1003 l 529 656 l 768 996 l 771 1001 q 763 1012 771 1008 q 742 1015 756 1015 l 742 1042 l 1050 1042 l 1050 1015 z "},"Z":{"ha":1042,"x_min":81,"x_max":961,"o":"m 961 204 l 961 -29 l 935 -29 q 931 -9 935 -19 q 919 1 926 1 l 81 1 l 81 49 l 644 885 l 122 885 q 111 875 115 885 q 107 857 107 865 l 81 857 l 81 1071 l 107 1071 q 111 1053 107 1063 q 122 1043 115 1043 l 938 1043 l 938 997 l 382 174 l 919 174 q 931 184 926 174 q 935 204 935 194 l 961 204 z "},"[":{"ha":651,"x_min":139,"x_max":582,"o":"m 333 878 l 333 -36 l 540 -36 q 551 -27 547 -36 q 556 -10 556 -18 l 582 -10 l 582 -214 l 556 -214 q 551 -197 556 -206 q 540 -187 547 -187 l 140 -187 l 140 -161 q 160 -157 150 -161 q 169 -146 169 -153 l 169 988 q 159 999 169 994 q 139 1003 149 1003 l 139 1029 l 540 1029 q 551 1038 547 1029 q 556 1056 556 1047 l 582 1056 l 582 851 l 556 851 q 551 869 556 860 q 540 878 547 878 l 333 878 z "},"\\":{"ha":697,"x_min":7,"x_max":690,"o":"m 7 1118 l 176 1118 l 690 -82 l 521 -82 l 7 1118 z "},"]":{"ha":651,"x_min":69,"x_max":513,"o":"m 482 -144 q 492 -156 482 -151 q 513 -160 503 -160 l 513 -186 l 111 -186 q 100 -195 104 -186 q 96 -212 96 -204 l 69 -212 l 69 -8 l 96 -8 q 100 -26 96 -17 q 111 -35 104 -35 l 318 -35 l 318 878 l 111 878 q 100 869 104 878 q 96 851 96 860 l 69 851 l 69 1056 l 96 1056 q 100 1038 96 1047 q 111 1029 104 1029 l 511 1029 l 511 1003 q 492 999 501 1003 q 482 988 482 994 l 482 -144 z "},"^":{"ha":833,"x_min":71,"x_max":763,"o":"m 529 1036 l 763 549 l 568 549 l 417 865 l 265 549 l 71 549 l 304 1036 l 529 1036 z "},"_":{"ha":833,"x_min":96,"x_max":738,"o":"m 96 -150 l 96 -56 l 738 -56 l 738 -150 l 96 -150 z "},"`":{"ha":833,"x_min":199,"x_max":490,"o":"m 379 1094 l 199 1368 l 360 1368 l 490 1094 l 379 1094 z "},"a":{"ha":879,"x_min":49,"x_max":815,"o":"m 815 613 q 795 608 806 613 q 785 597 785 604 l 785 42 q 795 31 785 35 q 815 26 806 26 l 815 0 l 610 0 l 610 76 q 389 -18 522 -18 q 210 23 288 -18 q 91 140 133 64 q 49 318 49 217 q 95 494 49 417 q 219 613 142 571 q 389 656 297 656 q 610 553 522 656 l 610 639 l 815 639 l 815 613 m 410 129 q 512 155 467 129 q 582 223 557 181 q 607 314 607 265 q 552 451 607 397 q 410 506 497 506 q 270 453 325 506 q 215 318 215 400 q 272 181 215 232 q 410 129 328 129 z "},"b":{"ha":871,"x_min":64,"x_max":822,"o":"m 469 656 q 649 613 568 656 q 776 494 729 571 q 822 318 822 418 q 776 141 822 217 q 651 24 731 65 q 469 -18 571 -18 q 267 51 353 -18 l 267 0 l 64 0 l 64 26 q 84 31 74 26 q 94 42 94 35 l 94 1000 q 84 1011 94 1007 q 64 1015 74 1015 l 64 1042 l 297 1042 l 297 1015 q 277 1011 288 1015 q 267 1000 267 1007 l 267 590 q 469 656 350 656 m 458 129 q 598 181 542 129 q 654 318 654 232 q 599 452 654 399 q 458 506 543 506 q 317 451 372 506 q 261 314 261 397 q 287 223 261 265 q 358 155 313 181 q 458 129 404 129 z "},"c":{"ha":713,"x_min":49,"x_max":692,"o":"m 381 -29 q 215 15 292 -29 q 94 136 139 60 q 49 303 49 213 q 94 491 49 410 q 215 616 139 572 q 383 660 292 660 q 495 644 449 660 q 570 608 542 629 q 642 547 599 586 q 649 544 644 544 q 662 549 654 544 q 674 557 669 553 l 692 538 l 542 399 l 524 418 q 535 434 531 424 q 536 450 540 444 q 399 511 486 511 q 266 458 319 511 q 213 321 213 406 q 264 181 213 233 q 399 128 315 128 q 467 138 440 128 q 526 178 493 149 q 529 185 529 181 q 519 203 529 193 l 536 224 l 686 99 l 669 79 q 639 83 647 92 q 531 -1 588 26 q 381 -29 475 -29 z "},"d":{"ha":871,"x_min":49,"x_max":801,"o":"m 771 42 q 781 31 771 35 q 801 26 792 26 l 801 0 l 603 0 l 603 49 q 404 -19 519 -19 q 221 22 301 -19 q 94 140 140 64 q 49 317 49 217 q 95 497 49 418 q 223 619 142 575 q 404 663 304 663 q 603 597 519 663 l 603 1000 q 593 1011 603 1007 q 574 1015 583 1015 l 574 1042 l 800 1042 l 800 1015 q 781 1011 790 1015 q 771 1000 771 1007 l 771 42 m 413 129 q 512 154 467 129 q 583 222 557 179 q 608 311 608 264 q 553 451 608 396 q 413 506 499 506 q 272 452 326 506 q 217 314 217 399 q 273 179 217 229 q 413 129 329 129 z "},"e":{"ha":772,"x_min":49,"x_max":731,"o":"m 388 668 q 572 622 494 668 q 690 496 650 575 q 731 321 731 417 q 726 263 731 292 l 218 263 q 276 158 224 196 q 403 121 329 121 q 487 135 453 121 q 547 176 521 149 q 550 183 550 182 q 546 195 550 189 q 538 204 542 201 l 554 225 l 708 104 l 693 83 q 664 86 672 96 q 403 -31 567 -31 q 217 16 297 -31 q 92 141 136 63 q 49 315 49 219 q 92 497 49 417 q 212 623 135 578 q 388 668 289 668 m 564 392 q 506 488 558 449 q 389 528 454 528 q 276 488 324 528 q 219 392 229 449 l 564 392 z "},"f":{"ha":479,"x_min":35,"x_max":444,"o":"m 444 663 l 444 458 l 418 458 q 414 476 418 467 q 403 485 410 485 l 303 485 l 303 42 q 313 31 303 35 q 331 26 322 26 l 331 0 l 115 0 l 115 26 q 133 31 124 26 q 143 42 143 35 l 143 485 l 76 485 q 65 476 69 485 q 61 458 61 467 l 35 458 l 35 663 l 61 663 q 65 645 61 654 q 76 636 69 636 l 143 636 l 143 844 q 201 995 143 938 q 360 1057 260 1053 q 370 1067 367 1057 q 374 1086 374 1076 l 400 1089 l 413 846 l 386 844 q 381 866 386 856 q 368 876 376 876 q 319 849 336 871 q 303 799 303 828 l 303 636 l 403 636 q 414 645 410 636 q 418 663 418 654 l 444 663 z "},"g":{"ha":876,"x_min":49,"x_max":807,"o":"m 807 639 l 807 613 q 787 608 797 613 q 776 597 776 604 l 778 -51 q 678 -320 778 -225 q 406 -415 578 -415 q 256 -376 335 -415 q 110 -258 176 -336 q 101 -254 108 -254 q 78 -264 90 -254 l 63 -243 l 236 -106 l 253 -126 q 240 -142 246 -132 q 238 -158 233 -151 q 313 -231 272 -207 q 410 -254 353 -254 q 551 -210 500 -254 q 603 -78 603 -167 l 603 49 q 401 -19 515 -19 q 219 23 299 -19 q 94 142 139 65 q 49 319 49 219 q 96 495 49 419 q 224 612 143 571 q 401 653 304 653 q 603 589 518 653 l 603 639 l 807 639 m 410 129 q 556 180 504 129 q 607 314 607 231 q 551 451 607 397 q 410 506 496 506 q 272 453 326 506 q 217 317 217 400 q 272 180 217 231 q 410 129 328 129 z "},"h":{"ha":849,"x_min":64,"x_max":785,"o":"m 753 42 q 763 31 753 35 q 785 26 774 26 l 785 0 l 540 0 l 540 26 q 562 31 551 26 q 572 42 572 35 l 572 331 q 538 452 572 401 q 433 503 503 503 q 315 456 363 503 q 268 319 268 408 l 268 42 q 278 31 268 35 q 299 26 289 26 l 299 0 l 64 0 l 64 26 q 84 31 74 26 q 94 42 94 35 l 94 1000 q 84 1011 94 1007 q 64 1015 74 1015 l 64 1042 l 299 1042 l 299 1015 q 278 1011 289 1015 q 268 1000 268 1007 l 268 576 q 356 632 304 611 q 461 653 408 653 q 617 615 551 653 q 718 515 683 578 q 753 374 753 451 l 753 42 z "},"i":{"ha":406,"x_min":83,"x_max":322,"o":"m 204 756 q 128 786 160 756 q 97 863 97 817 q 128 937 97 906 q 204 968 160 968 q 279 937 249 968 q 310 863 310 906 q 279 786 310 817 q 204 756 249 756 m 114 597 q 103 608 114 604 q 83 613 93 613 l 83 639 l 322 639 l 322 613 q 302 608 313 613 q 292 597 292 604 l 292 42 q 302 31 292 35 q 322 26 313 26 l 322 0 l 83 0 l 83 26 q 103 31 93 26 q 114 42 114 35 l 114 597 z "},"j":{"ha":404,"x_min":-32,"x_max":321,"o":"m 199 754 q 124 785 154 754 q 93 861 93 815 q 124 935 93 904 q 199 967 156 967 q 273 935 242 967 q 304 861 304 904 q 274 785 304 815 q 199 754 243 754 m 289 -111 q 260 -288 289 -218 q 157 -433 231 -358 l 154 -439 q 159 -452 154 -444 q 169 -464 164 -460 l 151 -483 l -32 -321 l -14 -301 q 5 -312 -6 -308 q 21 -311 15 -317 q 86 -222 64 -265 q 108 -129 108 -179 l 108 597 q 98 608 108 604 q 76 613 88 613 l 76 639 l 321 639 l 321 613 q 299 608 310 613 q 289 597 289 604 l 289 -111 z "},"k":{"ha":754,"x_min":64,"x_max":721,"o":"m 688 33 q 721 26 693 26 l 721 0 l 467 0 l 467 26 q 483 33 483 26 q 478 44 483 36 l 346 226 l 271 139 l 271 42 q 281 31 271 35 q 301 26 292 26 l 301 0 l 64 0 l 64 26 q 84 31 74 26 q 94 42 94 35 l 94 1000 q 84 1011 94 1007 q 64 1015 74 1015 l 64 1042 l 301 1042 l 301 1015 q 281 1011 292 1015 q 271 1000 271 1007 l 271 386 l 454 597 l 457 603 q 432 613 457 613 l 432 639 l 710 639 l 710 613 l 697 613 q 674 607 679 613 l 450 347 l 688 33 z "},"l":{"ha":372,"x_min":64,"x_max":308,"o":"m 96 1000 q 85 1011 96 1007 q 64 1015 75 1015 l 64 1042 l 308 1042 l 308 1015 q 287 1011 297 1015 q 276 1000 276 1007 l 276 42 q 287 31 276 35 q 308 26 297 26 l 308 0 l 64 0 l 64 26 q 85 31 75 26 q 96 42 96 35 l 96 1000 z "},"m":{"ha":1192,"x_min":64,"x_max":1128,"o":"m 1096 42 q 1106 31 1096 35 q 1128 26 1117 26 l 1128 0 l 883 0 l 883 26 q 905 31 894 26 q 915 42 915 35 l 915 331 q 801 503 915 503 q 715 457 746 503 q 685 319 685 411 l 685 42 q 695 31 685 35 q 717 26 706 26 l 717 0 l 474 0 l 474 26 q 495 31 485 26 q 506 42 506 35 l 506 331 q 482 455 506 407 q 394 503 458 503 q 315 466 344 503 q 279 356 285 429 l 279 42 q 290 31 279 35 q 311 26 301 26 l 311 0 l 64 0 l 64 26 q 85 31 74 26 q 96 42 96 35 l 96 597 q 85 608 96 604 q 65 613 75 613 l 65 639 l 279 639 l 279 601 q 421 653 335 653 q 555 623 499 653 q 643 540 611 593 q 720 622 668 592 q 838 653 772 653 q 1032 575 968 653 q 1096 374 1096 497 l 1096 42 z "},"n":{"ha":849,"x_min":64,"x_max":785,"o":"m 753 42 q 763 31 753 35 q 785 26 774 26 l 785 0 l 540 0 l 540 26 q 562 31 551 26 q 572 42 572 35 l 572 331 q 538 452 572 401 q 433 503 503 503 q 319 456 363 503 q 275 319 275 408 l 275 42 q 285 31 275 35 q 307 26 296 26 l 307 0 l 64 0 l 64 26 q 85 31 75 26 q 96 42 96 35 l 96 597 q 85 608 96 604 q 65 613 75 613 l 65 639 l 275 639 l 275 582 q 360 634 311 615 q 461 653 410 653 q 616 615 550 653 q 717 515 682 578 q 753 374 753 451 l 753 42 z "},"o":{"ha":792,"x_min":49,"x_max":743,"o":"m 396 -17 q 215 27 293 -17 q 92 147 136 71 q 49 319 49 224 q 92 492 49 414 q 215 615 136 569 q 396 660 294 660 q 572 616 493 660 q 697 495 651 572 q 743 319 743 418 q 702 156 743 233 q 582 31 661 79 q 396 -17 503 -17 m 396 143 q 528 191 478 143 q 579 315 579 239 q 528 446 579 394 q 396 497 478 497 q 268 447 319 497 q 217 319 217 396 q 268 191 217 239 q 396 143 319 143 z "},"p":{"ha":875,"x_min":69,"x_max":826,"o":"m 485 656 q 661 613 583 656 q 783 494 739 571 q 826 317 826 417 q 783 139 826 215 q 660 21 739 63 q 481 -21 582 -21 q 274 57 365 -21 l 274 -362 q 284 -374 274 -369 q 304 -378 294 -378 l 304 -404 l 69 -404 l 69 -378 q 90 -374 79 -378 q 100 -362 100 -369 l 100 597 q 90 608 100 604 q 69 613 79 613 l 69 639 l 274 639 l 274 581 q 485 656 368 656 m 467 128 q 604 178 549 128 q 660 314 660 228 q 606 451 660 397 q 467 504 551 504 q 324 451 379 504 q 269 313 269 397 q 295 222 269 265 q 366 153 321 179 q 467 128 411 128 z "},"q":{"ha":879,"x_min":49,"x_max":810,"o":"m 810 613 q 790 608 800 613 q 779 597 779 604 l 779 -362 q 790 -374 779 -369 q 810 -378 800 -378 l 810 -404 l 572 -404 l 572 -378 q 592 -374 582 -378 q 603 -362 603 -369 l 603 54 q 403 -19 515 -19 q 221 22 301 -19 q 94 140 140 64 q 49 317 49 217 q 95 494 49 417 q 223 613 142 571 q 403 656 304 656 q 603 586 515 656 l 603 639 l 810 639 l 810 613 m 411 129 q 510 154 465 129 q 582 221 556 179 q 608 310 608 263 q 553 450 608 396 q 411 504 499 504 q 271 451 325 504 q 217 314 217 397 q 273 178 217 228 q 411 129 329 129 z "},"r":{"ha":513,"x_min":50,"x_max":492,"o":"m 492 681 l 492 457 l 465 457 q 461 479 465 467 q 450 493 457 492 l 440 493 q 353 469 397 493 q 281 405 310 444 q 253 321 253 365 l 253 42 q 263 31 253 35 q 283 26 274 26 l 283 0 l 50 0 l 50 26 q 70 31 60 26 q 81 42 81 35 l 81 597 q 70 608 81 604 q 50 613 60 613 l 50 639 l 253 639 l 253 579 q 343 635 290 614 q 449 656 396 656 l 450 656 l 451 656 q 462 664 458 656 q 465 681 465 672 l 492 681 z "},"s":{"ha":626,"x_min":14,"x_max":592,"o":"m 333 -21 q 197 8 263 -21 q 64 92 131 38 q 57 94 61 94 q 33 82 46 94 l 14 99 l 153 257 l 172 239 q 163 222 167 232 q 165 207 160 213 q 251 145 211 165 q 333 125 290 125 q 440 196 440 125 q 408 245 440 228 q 299 283 375 263 q 156 352 200 310 q 111 468 111 394 q 168 610 111 556 q 324 665 225 665 q 414 650 374 665 q 511 596 454 635 q 517 594 513 594 q 531 599 524 594 q 540 607 538 603 l 561 589 l 436 447 l 417 464 q 424 478 422 469 q 421 493 426 488 q 373 522 396 513 q 322 532 350 532 q 276 521 293 532 q 260 488 260 510 q 269 458 260 469 q 305 436 279 447 q 383 408 331 425 q 536 327 481 379 q 592 199 592 275 q 521 33 592 86 q 333 -21 450 -21 z "},"t":{"ha":464,"x_min":28,"x_max":436,"o":"m 436 667 l 436 456 l 410 456 q 406 474 410 465 q 394 483 401 483 l 304 483 l 304 42 q 314 31 304 35 q 333 26 324 26 l 333 0 l 107 0 l 107 26 q 126 31 117 26 q 136 42 136 35 l 136 483 l 69 483 q 58 474 63 483 q 54 456 54 465 l 28 456 l 28 667 l 54 667 q 58 648 54 657 q 69 639 63 639 l 136 639 l 136 801 q 126 813 136 808 q 107 817 117 817 l 107 843 l 333 843 l 333 817 q 314 813 324 817 q 304 801 304 808 l 304 639 l 394 639 q 406 648 401 639 q 410 667 410 657 l 436 667 z "},"u":{"ha":783,"x_min":64,"x_max":719,"o":"m 689 42 q 699 31 689 35 q 719 26 710 26 l 719 0 l 547 0 l 547 51 q 376 -12 474 -12 q 163 72 231 -12 q 94 282 94 156 l 94 597 q 84 608 94 604 q 64 613 74 613 l 64 639 l 300 639 l 300 613 q 280 608 290 613 q 269 597 269 604 l 269 293 q 300 192 269 233 q 394 151 331 151 q 486 189 456 151 q 517 285 517 226 l 517 597 q 506 608 517 604 q 486 613 496 613 l 486 639 l 719 639 l 719 613 q 699 608 710 613 q 689 597 689 604 l 689 42 z "},"v":{"ha":811,"x_min":14,"x_max":797,"o":"m 797 613 q 763 601 769 613 l 511 63 q 507 46 507 53 q 516 31 507 35 q 535 26 525 26 l 535 0 l 254 0 l 254 26 q 274 31 264 26 q 283 49 283 36 q 279 64 283 56 l 47 600 q 14 613 43 613 l 14 639 l 256 639 l 256 613 q 234 605 239 613 q 233 588 229 597 l 404 189 l 585 589 q 586 593 586 590 q 576 606 586 600 q 550 613 565 613 l 550 639 l 797 639 l 797 613 z "},"w":{"ha":1111,"x_min":14,"x_max":1097,"o":"m 460 67 l 457 54 q 469 33 457 39 q 493 26 481 26 l 493 0 l 207 0 l 207 26 q 229 32 218 26 q 240 51 240 38 q 238 65 240 54 l 44 600 q 33 610 42 607 q 14 613 24 613 l 14 639 l 249 639 l 249 613 q 226 604 232 613 q 222 586 219 596 l 363 193 l 481 572 q 482 585 482 576 q 472 606 482 600 q 453 613 463 613 l 453 639 l 689 639 l 689 613 q 669 606 679 613 q 658 583 658 600 q 660 572 658 576 l 765 190 l 910 586 q 900 603 913 594 q 871 613 888 613 l 871 639 l 1097 639 l 1097 613 q 1078 610 1088 613 q 1067 600 1069 607 l 876 65 q 874 51 874 60 q 885 32 874 38 q 907 26 896 26 l 907 0 l 614 0 l 614 26 q 640 33 626 26 q 653 56 653 39 q 651 67 653 63 l 564 404 l 460 67 z "},"x":{"ha":769,"x_min":33,"x_max":739,"o":"m 739 613 l 729 613 q 706 606 711 613 l 485 317 l 700 33 q 733 26 706 26 l 733 0 l 489 0 l 489 26 q 506 33 506 26 q 500 44 506 36 l 386 194 l 269 43 l 267 38 q 274 28 267 32 q 293 25 281 25 l 293 0 l 35 0 l 35 26 l 42 26 q 68 33 61 26 l 285 319 l 67 606 q 33 613 61 613 l 33 639 l 276 639 l 276 614 q 260 607 260 614 q 264 596 260 603 l 382 440 l 503 596 l 506 601 q 498 610 506 607 q 478 614 490 614 l 478 639 l 739 639 l 739 613 z "},"y":{"ha":836,"x_min":14,"x_max":822,"o":"m 822 613 q 786 601 793 613 l 300 -356 q 299 -360 299 -357 q 308 -374 299 -368 q 333 -379 318 -379 l 333 -406 l 72 -406 l 72 -379 q 108 -368 101 -379 l 335 78 l 50 603 q 14 613 44 613 l 14 639 l 271 639 l 271 613 q 251 606 254 613 q 253 590 247 599 l 429 264 l 594 589 q 596 593 596 590 q 586 607 596 601 q 561 613 576 613 l 561 639 l 822 639 l 822 613 z "},"z":{"ha":676,"x_min":35,"x_max":642,"o":"m 642 592 l 319 154 l 597 154 q 608 163 604 154 q 613 181 613 172 l 639 181 l 639 -26 l 613 -26 q 608 -9 613 -18 q 597 0 604 0 l 38 0 l 38 44 l 358 483 l 76 483 q 65 474 69 483 q 61 456 61 465 l 35 456 l 35 667 l 61 667 q 65 648 61 657 q 76 639 69 639 l 642 639 l 642 592 z "},"{":{"ha":586,"x_min":14,"x_max":558,"o":"m 336 599 q 294 470 336 515 q 172 421 253 425 q 294 374 253 419 q 336 246 336 329 l 336 83 q 363 -4 336 28 q 426 -36 389 -36 l 517 -36 q 528 -27 524 -36 q 532 -10 532 -18 l 558 -10 l 558 -214 l 532 -214 q 528 -197 532 -206 q 517 -187 524 -187 l 401 -187 q 172 43 172 -187 l 172 208 q 142 296 172 265 q 56 326 113 326 q 44 315 49 326 q 40 293 40 304 l 14 293 l 14 551 l 40 551 q 44 529 40 540 q 56 518 49 518 q 142 549 113 518 q 172 636 172 579 l 172 800 q 401 1029 172 1029 l 517 1029 q 528 1038 524 1029 q 532 1056 532 1047 l 558 1056 l 558 851 l 532 851 q 528 869 532 860 q 517 878 524 878 l 426 878 q 362 847 388 878 q 336 760 336 815 l 336 599 z "},"|":{"ha":556,"x_min":197,"x_max":358,"o":"m 197 -167 l 197 994 l 358 994 l 358 -167 l 197 -167 z "},"}":{"ha":586,"x_min":28,"x_max":572,"o":"m 572 550 l 572 292 l 546 292 q 542 314 546 303 q 531 325 538 325 q 444 294 474 325 q 414 207 414 264 l 414 42 q 185 -187 414 -187 l 69 -187 q 58 -197 63 -187 q 54 -214 54 -206 l 28 -214 l 28 -8 l 54 -8 q 58 -26 54 -17 q 69 -35 63 -35 l 160 -36 q 224 -4 197 -36 q 250 83 250 28 l 250 244 q 292 373 250 328 q 414 421 333 418 q 292 469 333 424 q 250 597 250 514 l 250 760 q 224 847 250 815 q 160 878 199 878 l 69 878 q 58 869 63 878 q 54 851 54 860 l 28 851 l 28 1056 l 54 1056 q 58 1038 54 1047 q 69 1029 63 1029 l 185 1029 q 414 800 414 1029 l 414 635 q 444 547 414 578 q 531 517 474 517 q 542 528 538 517 q 546 550 546 539 l 572 550 z "},"~":{"ha":833,"x_min":44,"x_max":789,"o":"m 550 289 q 474 303 508 289 q 396 350 439 317 q 345 383 364 375 q 300 392 326 392 q 256 376 278 392 q 218 331 233 360 l 218 328 q 238 303 218 318 l 225 279 l 44 383 l 58 406 q 75 401 65 401 q 86 407 85 401 q 176 505 121 469 q 293 540 231 540 q 372 530 338 540 q 442 492 407 519 q 502 449 482 460 q 549 438 522 438 q 585 449 571 438 q 621 494 600 460 q 622 500 622 496 q 607 519 622 513 l 618 543 l 789 457 l 776 433 q 763 438 768 438 q 750 429 754 438 q 550 289 678 289 z "}," ":{"ha":389,"x_min":0,"x_max":0,"o":""},"¡":{"ha":456,"x_min":83,"x_max":372,"o":"m 229 829 q 135 868 174 829 q 97 963 97 907 q 137 1056 97 1017 q 231 1094 176 1094 q 323 1056 285 1094 q 361 963 361 1017 q 323 867 361 906 q 229 829 285 829 m 142 681 q 132 692 142 688 q 114 696 122 696 l 114 722 l 342 722 l 342 696 q 324 692 333 696 q 314 681 314 688 l 333 -47 q 347 -58 333 -54 q 372 -62 360 -62 l 372 -89 l 83 -89 l 83 -62 q 109 -58 96 -62 q 122 -47 122 -54 l 142 681 z "},"¢":{"ha":692,"x_min":42,"x_max":685,"o":"m 529 354 l 679 229 l 663 210 q 632 214 640 222 q 524 129 581 157 q 374 101 468 101 q 226 136 296 101 l 175 51 l 114 89 l 167 175 q 75 290 108 222 q 42 433 42 357 q 87 622 42 540 q 208 747 132 703 q 376 790 285 790 q 522 761 461 790 l 569 840 l 629 803 l 582 724 q 635 678 599 710 q 642 675 638 675 q 655 679 647 675 q 667 688 663 683 l 685 668 l 535 529 l 517 549 q 528 565 524 554 q 529 581 533 575 l 508 603 l 310 275 q 392 258 347 258 q 460 269 433 258 q 519 308 486 279 q 522 315 522 311 q 513 333 522 324 l 529 354 m 206 451 q 253 317 206 368 l 446 635 q 392 642 418 642 q 259 589 313 642 q 206 451 206 536 z "},"£":{"ha":1082,"x_min":36,"x_max":1054,"o":"m 904 338 l 1054 136 l 1033 121 q 1017 135 1026 129 q 1003 136 1008 140 q 876 63 938 88 q 744 39 814 39 q 564 72 660 39 q 478 99 507 92 q 406 106 449 106 q 318 88 360 106 q 232 33 276 71 q 229 26 229 32 q 233 13 229 21 q 242 0 238 6 l 221 -17 l 114 104 l 36 190 l 57 208 q 73 195 63 201 q 90 192 83 189 q 207 301 169 243 q 244 451 244 360 l 244 460 l 156 460 q 144 451 149 460 q 140 433 140 442 l 114 433 l 114 638 l 140 638 q 144 620 140 629 q 156 611 149 611 l 231 611 q 229 649 229 624 q 284 883 229 790 q 424 1017 339 975 q 603 1060 510 1060 q 778 1024 707 1060 q 913 919 850 988 q 921 917 915 917 q 944 929 932 917 l 963 910 l 788 739 l 768 758 q 783 777 776 765 q 785 796 789 789 q 613 869 719 869 q 520 847 565 869 q 445 774 475 825 q 415 640 415 722 q 417 611 415 621 l 746 611 q 757 620 753 611 q 761 638 761 629 l 788 638 l 788 433 l 761 433 q 757 451 761 442 q 746 460 753 460 l 432 460 q 357 261 431 354 q 457 274 406 274 q 578 251 519 274 q 733 217 671 217 q 893 283 808 217 q 896 290 896 286 q 883 321 896 300 l 904 338 z "},"¤":{"ha":833,"x_min":60,"x_max":761,"o":"m 704 447 q 653 285 704 358 l 761 176 l 675 90 l 564 201 q 417 160 496 160 q 261 206 331 160 l 146 90 l 60 176 l 175 292 q 129 447 129 361 q 171 594 129 526 l 60 706 l 146 792 l 254 683 q 417 735 328 735 q 572 689 503 735 l 675 792 l 761 706 l 658 603 q 704 447 704 533 m 256 447 q 303 333 256 381 q 417 286 350 286 q 532 333 485 286 q 579 447 579 381 q 532 563 579 515 q 417 610 485 610 q 303 563 350 610 q 256 447 256 515 z "},"¥":{"ha":1064,"x_min":14,"x_max":1050,"o":"m 1050 1015 l 1042 1015 q 1010 1007 1015 1015 l 769 661 l 1000 661 l 1000 549 l 690 549 l 636 471 l 636 440 l 1000 440 l 1000 333 l 636 333 l 636 42 q 648 31 636 35 q 671 26 660 26 l 671 0 l 399 0 l 399 26 q 422 31 410 26 q 433 42 433 35 l 433 333 l 65 333 l 65 440 l 433 440 l 433 463 l 374 549 l 65 549 l 65 661 l 294 661 l 54 1007 q 37 1014 50 1013 q 14 1015 24 1015 l 14 1042 l 300 1042 l 300 1015 q 283 1008 283 1015 q 288 996 283 1003 l 529 656 l 768 996 l 771 1001 q 763 1012 771 1008 q 742 1015 756 1015 l 742 1042 l 1050 1042 l 1050 1015 z "},"¦":{"ha":556,"x_min":197,"x_max":358,"o":"m 197 528 l 197 994 l 358 994 l 358 528 l 197 528 m 197 -167 l 197 300 l 358 300 l 358 -167 l 197 -167 z "},"§":{"ha":657,"x_min":19,"x_max":604,"o":"m 515 374 q 604 207 604 313 q 531 45 604 107 q 339 -17 457 -17 q 68 108 196 -17 q 61 111 65 111 q 48 107 56 111 q 38 99 40 103 l 19 118 l 174 268 l 193 249 q 181 233 186 243 q 182 217 176 222 q 259 153 224 171 q 340 135 294 135 q 413 156 385 135 q 440 211 440 176 q 427 252 440 236 q 384 283 414 268 q 281 326 354 297 q 250 338 276 328 q 128 419 168 369 q 88 542 88 469 q 108 624 88 583 q 163 696 128 664 q 88 854 88 753 q 156 1006 88 947 q 333 1064 225 1064 q 417 1053 382 1064 q 479 1026 453 1043 q 551 976 506 1010 q 558 975 553 975 q 585 989 571 975 l 604 969 l 457 828 l 439 846 q 443 872 454 864 q 331 918 385 918 q 265 901 289 918 q 242 851 242 883 q 269 800 242 821 q 374 751 296 779 q 547 660 492 710 q 603 522 603 611 q 515 374 603 440 m 236 547 q 301 471 236 497 l 381 439 q 446 528 446 478 q 416 585 446 561 q 300 638 386 610 q 236 547 236 613 z "},"¨":{"ha":800,"x_min":146,"x_max":654,"o":"m 244 1132 q 174 1160 203 1132 q 146 1231 146 1189 q 174 1299 146 1271 q 244 1326 203 1326 q 312 1299 283 1326 q 340 1231 340 1271 q 313 1160 340 1189 q 244 1132 285 1132 m 558 1132 q 488 1160 517 1132 q 460 1231 460 1189 q 488 1299 460 1271 q 558 1326 517 1326 q 626 1299 597 1326 q 654 1231 654 1271 q 626 1160 654 1189 q 558 1132 599 1132 z "},"©":{"ha":1111,"x_min":19,"x_max":1092,"o":"m 556 -4 q 287 68 410 -4 q 92 263 164 140 q 19 532 19 386 q 92 801 19 678 q 287 996 164 924 q 556 1068 410 1068 q 824 996 701 1068 q 1019 801 947 924 q 1092 532 1092 678 q 1019 263 1092 386 q 824 68 947 140 q 556 -4 701 -4 m 556 85 q 779 145 676 85 q 942 308 882 206 q 1003 532 1003 411 q 942 756 1003 653 q 779 919 882 858 q 556 979 676 979 q 332 919 435 979 q 169 756 229 858 q 108 532 108 653 q 169 308 108 411 q 332 145 229 206 q 556 85 435 85 m 563 200 q 396 243 471 200 q 278 360 321 286 q 235 526 235 435 q 276 694 235 619 q 392 812 318 769 q 558 854 467 854 q 700 825 642 854 q 810 744 758 796 q 818 740 814 740 q 839 749 826 740 l 856 728 l 715 617 l 699 636 q 704 661 714 651 q 639 706 672 690 q 560 721 606 721 q 427 665 481 721 q 374 526 374 608 q 399 433 374 476 q 468 365 425 390 q 563 339 511 339 q 638 353 606 339 q 701 400 669 368 q 704 407 704 403 q 693 428 704 417 l 710 449 l 858 322 l 842 303 q 825 310 835 308 q 811 307 815 313 q 698 225 756 250 q 563 200 640 200 z "},"ª":{"ha":583,"x_min":92,"x_max":536,"o":"m 536 1042 q 524 1040 531 1042 q 518 1033 518 1038 l 518 711 q 524 705 518 707 q 536 703 531 703 l 536 688 l 417 688 l 417 731 q 289 676 368 676 q 146 730 200 676 q 92 872 92 783 q 119 974 92 929 q 191 1042 146 1018 q 289 1067 236 1067 q 417 1007 364 1067 l 417 1057 l 536 1057 l 536 1042 m 301 763 q 383 794 350 763 q 415 869 415 826 q 383 949 415 918 q 301 981 351 981 q 221 950 253 981 q 189 872 189 919 q 222 792 189 822 q 301 763 254 763 z "},"«":{"ha":833,"x_min":104,"x_max":724,"o":"m 340 686 l 472 686 l 236 392 l 472 97 l 340 97 l 104 392 l 340 686 m 592 686 l 724 686 l 488 392 l 724 97 l 592 97 l 356 392 l 592 686 z "},"¬":{"ha":833,"x_min":79,"x_max":781,"o":"m 754 147 q 763 136 754 140 q 781 132 772 132 l 781 106 l 575 106 l 575 132 q 592 136 583 132 q 601 147 601 140 l 601 329 l 121 329 q 110 319 114 329 q 106 301 106 310 l 79 301 l 79 515 l 106 515 q 110 497 106 507 q 121 488 114 488 l 754 488 l 754 147 z "},"­":{"ha":531,"x_min":42,"x_max":489,"o":"m 447 397 q 458 406 454 397 q 463 422 463 414 l 489 422 l 489 232 l 463 232 q 458 249 463 240 q 447 257 454 257 l 83 257 q 72 249 76 257 q 68 232 68 240 l 42 232 l 42 422 l 68 422 q 72 406 68 414 q 83 397 76 397 l 447 397 z "},"®":{"ha":1111,"x_min":19,"x_max":1092,"o":"m 556 1068 q 824 996 701 1068 q 1019 801 947 924 q 1092 532 1092 678 q 1019 263 1092 386 q 824 68 947 140 q 556 -4 701 -4 q 287 68 410 -4 q 92 263 164 140 q 19 532 19 386 q 92 801 19 678 q 287 996 164 924 q 556 1068 410 1068 m 556 85 q 779 145 676 85 q 942 308 882 206 q 1003 532 1003 411 q 942 756 1003 653 q 779 919 882 858 q 556 979 676 979 q 332 919 435 979 q 169 756 229 858 q 108 532 108 653 q 169 308 108 411 q 332 145 229 206 q 556 85 435 85 m 807 249 q 844 239 813 239 l 844 213 l 640 213 l 640 239 q 667 246 660 239 q 668 260 674 253 l 531 490 l 447 490 l 447 254 q 455 243 447 247 q 469 239 463 239 l 469 213 l 301 213 l 301 239 q 316 243 308 239 q 324 254 324 247 l 324 828 q 313 839 324 835 q 293 843 303 843 l 293 869 l 572 869 q 747 817 688 869 q 806 683 806 765 q 764 560 806 607 q 657 497 722 513 l 807 249 m 447 764 l 447 599 l 585 599 q 665 623 639 599 q 690 683 690 647 q 661 740 690 717 q 588 764 632 764 l 447 764 z "},"¯":{"ha":833,"x_min":167,"x_max":667,"o":"m 167 1208 l 167 1332 l 667 1332 l 667 1208 l 167 1208 z "},"°":{"ha":599,"x_min":83,"x_max":515,"o":"m 300 638 q 191 667 240 638 q 113 745 142 696 q 83 854 83 794 q 113 962 83 913 q 191 1040 142 1011 q 300 1069 240 1069 q 408 1040 358 1069 q 486 962 457 1011 q 515 854 515 913 q 486 745 515 794 q 408 667 457 696 q 300 638 358 638 m 300 739 q 381 773 347 739 q 414 854 414 807 q 381 935 414 901 q 300 968 347 968 q 219 935 253 968 q 185 854 185 901 q 219 773 185 807 q 300 739 253 739 z "},"±":{"ha":833,"x_min":69,"x_max":764,"o":"m 764 692 l 764 492 l 738 492 q 733 509 738 500 q 722 518 729 518 l 497 518 l 497 389 q 507 378 497 382 q 525 374 517 374 l 525 347 l 308 347 l 308 374 q 326 378 317 374 q 336 389 336 382 l 336 518 l 111 518 q 100 509 104 518 q 96 492 96 500 l 69 492 l 69 692 l 96 692 q 100 674 96 683 q 111 665 104 665 l 336 665 l 336 792 q 326 803 336 799 q 308 807 317 807 l 308 833 l 525 833 l 525 807 q 507 803 517 807 q 497 792 497 799 l 497 665 l 722 665 q 733 674 729 665 q 738 692 738 683 l 764 692 m 722 313 q 733 321 729 313 q 738 338 738 329 l 764 338 l 764 144 l 738 144 q 733 161 738 153 q 722 169 729 169 l 111 169 q 100 161 104 169 q 96 144 96 153 l 69 144 l 69 338 l 96 338 q 100 321 96 329 q 111 313 104 313 l 722 313 z "},"²":{"ha":903,"x_min":64,"x_max":840,"o":"m 840 196 l 840 -29 l 814 -29 q 810 -10 814 -19 q 799 0 806 0 l 92 0 l 92 43 l 504 493 q 600 611 564 558 q 636 722 636 664 q 588 853 636 801 q 463 904 539 904 q 342 857 394 904 q 288 738 290 810 q 301 726 289 731 q 325 722 314 722 l 325 696 l 64 696 l 64 722 q 86 726 74 722 q 99 738 99 731 q 153 906 107 831 q 280 1026 199 982 q 471 1071 361 1071 q 665 1020 586 1071 q 784 888 744 969 q 824 718 824 807 q 803 603 824 654 q 744 500 783 551 q 629 365 706 449 l 449 167 l 799 167 q 810 176 806 167 q 814 196 814 186 l 840 196 z "},"³":{"ha":903,"x_min":25,"x_max":847,"o":"m 847 1042 l 847 899 l 565 656 q 701 594 642 642 q 794 477 761 547 q 828 324 828 407 q 785 153 828 233 q 656 25 742 74 q 447 -24 569 -24 q 228 43 328 -24 q 71 242 128 110 q 57 247 69 247 q 35 243 43 247 l 25 267 l 263 372 l 274 347 q 251 334 263 343 q 243 318 240 325 q 322 199 267 246 q 447 153 376 153 q 545 177 501 153 q 613 242 589 201 q 638 326 638 282 q 587 451 638 401 q 461 500 536 500 q 397 490 428 500 q 392 483 392 489 q 400 468 392 476 l 381 450 l 353 482 l 285 554 l 238 606 l 257 624 q 274 612 264 617 q 289 611 283 607 l 589 875 l 174 875 q 163 865 167 875 q 158 846 158 856 l 132 846 l 132 1071 l 158 1071 q 163 1051 158 1061 q 174 1042 167 1042 l 847 1042 z "},"´":{"ha":833,"x_min":296,"x_max":588,"o":"m 426 1368 l 588 1368 l 407 1094 l 296 1094 l 426 1368 z "},"µ":{"ha":833,"x_min":56,"x_max":767,"o":"m 735 42 q 745 31 735 35 q 765 26 756 26 l 765 0 l 572 0 l 572 57 q 410 -12 500 -12 q 267 33 331 -12 l 267 -362 q 277 -374 267 -369 q 299 -378 288 -378 l 299 -404 l 56 -404 l 56 -378 q 77 -374 67 -378 q 88 -362 88 -369 l 88 483 l 88 525 l 88 597 q 77 608 88 604 q 56 613 67 613 l 56 639 l 299 639 l 299 613 q 277 608 288 613 q 267 597 267 604 l 267 299 q 303 199 267 240 q 408 158 339 158 q 517 199 478 158 q 556 299 556 240 l 556 597 q 545 608 556 604 q 524 613 535 613 l 524 639 l 767 639 l 767 613 q 745 608 756 613 q 735 597 735 604 l 735 42 z "},"¶":{"ha":782,"x_min":35,"x_max":713,"o":"m 471 1042 l 471 -167 l 349 -167 l 349 522 l 321 522 q 181 551 246 522 q 75 639 115 581 q 35 781 35 697 q 71 915 35 856 q 175 1008 107 975 q 333 1042 243 1042 l 471 1042 m 713 1042 l 713 1015 q 692 1011 703 1015 q 682 1000 682 1007 l 682 -167 l 560 -167 l 560 1042 l 713 1042 z "},"·":{"ha":375,"x_min":69,"x_max":306,"o":"m 189 283 q 103 317 138 283 q 69 403 69 351 q 104 485 69 451 q 189 519 139 519 q 272 485 238 519 q 306 403 306 451 q 272 317 306 351 q 189 283 238 283 z "},"¸":{"ha":833,"x_min":263,"x_max":590,"o":"m 457 -62 q 553 -101 517 -68 q 590 -185 590 -133 q 540 -281 590 -244 q 414 -318 489 -318 q 263 -278 335 -318 l 296 -207 q 392 -231 351 -231 q 447 -215 428 -231 q 467 -174 467 -199 q 442 -134 467 -150 q 371 -118 417 -118 l 442 72 l 515 72 l 457 -62 z "},"¹":{"ha":903,"x_min":219,"x_max":629,"o":"m 596 42 q 607 31 596 35 q 629 26 618 26 l 629 0 l 372 0 l 372 26 q 394 31 383 26 q 406 42 406 35 l 406 875 l 261 875 q 250 865 254 875 q 246 846 246 856 l 219 846 l 219 1071 l 246 1071 q 250 1051 246 1061 q 261 1042 254 1042 l 626 1042 l 626 1015 q 606 1011 617 1015 q 596 1000 596 1007 l 596 42 z "},"º":{"ha":569,"x_min":92,"x_max":494,"o":"m 293 678 q 147 733 203 678 q 92 872 92 788 q 117 972 92 926 q 189 1043 143 1017 q 293 1069 235 1069 q 437 1014 379 1069 q 494 872 494 958 q 470 778 494 824 q 400 706 446 733 q 293 678 354 678 m 293 771 q 369 798 340 771 q 399 869 399 825 q 369 945 399 915 q 293 975 340 975 q 219 946 249 975 q 189 872 189 917 q 219 799 189 826 q 293 771 249 771 z "},"»":{"ha":897,"x_min":174,"x_max":793,"o":"m 174 686 l 306 686 l 542 392 l 306 97 l 174 97 l 410 392 l 174 686 m 425 686 l 557 686 l 793 392 l 557 97 l 425 97 l 661 392 l 425 686 z "},"¼":{"ha":1139,"x_min":29,"x_max":1110,"o":"m 128 924 q 117 916 121 924 q 113 900 113 908 l 86 900 l 86 1079 l 113 1079 q 117 1063 113 1071 q 128 1056 121 1056 l 369 1056 l 369 1029 q 349 1025 360 1029 q 339 1014 339 1021 l 339 485 q 348 474 339 478 q 365 469 357 469 l 365 443 l 165 443 l 165 469 q 183 474 174 469 q 192 485 192 478 l 192 924 l 128 924 m 29 33 l 1043 1047 l 1081 1008 l 67 -6 l 29 33 m 1110 247 l 1110 74 l 1083 74 q 1079 88 1083 81 q 1068 96 1075 96 l 1015 96 l 1015 42 q 1023 31 1015 35 q 1038 26 1031 26 l 1038 0 l 867 0 l 867 26 q 881 31 874 26 q 889 42 889 35 l 889 96 l 604 96 q 593 85 597 96 q 589 65 589 75 l 563 65 l 563 225 l 869 631 l 1046 631 l 1046 604 q 1026 600 1036 604 q 1015 589 1015 596 l 1015 225 l 1068 225 q 1079 233 1075 225 q 1083 247 1083 240 l 1110 247 m 889 442 l 724 225 l 889 225 l 889 442 z "},"½":{"ha":1139,"x_min":28,"x_max":1111,"o":"m 126 924 q 115 916 119 924 q 111 900 111 908 l 85 900 l 85 1079 l 111 1079 q 115 1063 111 1071 q 126 1056 119 1056 l 368 1056 l 368 1029 q 348 1025 358 1029 q 338 1014 338 1021 l 338 485 q 347 474 338 478 q 364 469 356 469 l 364 443 l 164 443 l 164 469 q 181 474 172 469 q 190 485 190 478 l 190 924 l 126 924 m 28 33 l 1042 1047 l 1079 1008 l 65 -6 l 28 33 m 1111 143 l 1111 -21 l 1085 -21 q 1081 -7 1085 -14 q 1069 0 1076 0 l 696 0 q 685 -7 689 0 q 681 -21 681 -14 l 654 -21 l 654 143 l 681 143 q 685 129 681 136 q 696 122 689 122 l 699 122 l 906 321 q 932 346 911 326 q 963 385 953 365 q 972 431 972 406 q 949 479 972 460 q 896 499 926 499 q 840 483 864 499 q 801 438 815 467 l 801 435 q 808 423 801 429 q 821 414 815 417 l 811 390 l 639 457 l 649 482 q 660 481 651 481 q 674 488 672 481 q 756 590 700 549 q 886 632 811 632 q 1008 603 958 632 q 1083 529 1058 575 q 1107 431 1107 483 q 1080 322 1107 365 q 983 213 1053 279 l 890 122 l 1069 122 q 1081 129 1076 122 q 1085 143 1085 136 l 1111 143 z "},"¾":{"ha":1139,"x_min":21,"x_max":1125,"o":"m 286 419 q 63 544 143 419 q 50 550 58 550 q 33 546 40 550 l 21 568 l 182 661 l 194 638 q 175 610 172 621 q 215 558 189 579 q 281 538 242 538 q 353 560 329 538 q 378 618 378 583 q 346 678 378 656 q 251 701 314 701 q 222 699 232 701 q 211 690 215 699 q 207 675 207 682 l 181 675 l 181 839 l 207 839 q 211 823 207 832 q 222 813 215 814 q 247 811 231 811 q 326 835 297 811 q 354 892 354 858 q 335 940 354 918 q 281 961 315 961 q 228 948 250 961 q 189 901 206 935 l 188 897 q 193 887 188 892 q 203 881 199 882 l 194 856 l 32 911 l 40 936 l 50 935 q 67 943 65 935 q 146 1037 94 1000 q 275 1074 197 1074 q 388 1047 342 1074 q 458 979 435 1021 q 481 892 481 938 q 459 817 481 851 q 397 761 438 783 q 473 705 443 746 q 503 610 503 664 q 447 475 503 531 q 286 419 392 419 m 74 33 l 1088 1047 l 1125 1008 l 111 -6 l 74 33 m 1083 225 q 1094 233 1090 225 q 1099 247 1099 240 l 1125 247 l 1125 74 l 1099 74 q 1094 88 1099 81 q 1083 96 1090 96 l 1031 96 l 1031 42 q 1038 31 1031 35 q 1053 26 1046 26 l 1053 0 l 882 0 l 882 26 q 897 31 889 26 q 904 42 904 35 l 904 96 l 619 96 q 608 85 613 96 q 604 65 604 75 l 578 65 l 578 225 l 885 631 l 1061 631 l 1061 604 q 1041 600 1051 604 q 1031 589 1031 596 l 1031 225 l 1083 225 m 904 442 l 739 225 l 904 225 l 904 442 z "},"¿":{"ha":910,"x_min":53,"x_max":813,"o":"m 438 853 q 344 892 382 853 q 306 986 306 931 q 345 1079 306 1040 q 439 1118 385 1118 q 531 1079 493 1118 q 569 986 569 1040 q 531 891 569 929 q 438 853 493 853 m 264 551 q 334 626 315 589 q 350 715 353 664 q 336 726 350 722 q 311 731 322 731 l 311 757 l 581 757 l 581 731 q 557 726 569 731 q 544 715 544 722 q 528 604 540 649 q 484 520 515 560 q 393 440 453 481 l 363 419 q 292 369 317 390 q 250 314 267 347 q 233 233 233 281 q 278 123 233 169 q 414 76 324 76 q 542 117 490 76 q 604 244 593 158 l 604 246 q 595 256 604 253 q 576 260 586 260 l 576 286 l 813 286 l 813 260 q 792 256 803 260 q 781 244 781 251 q 722 65 772 140 q 593 -49 672 -10 q 418 -87 514 -87 q 224 -45 307 -87 q 97 69 142 -3 q 53 224 53 140 q 76 360 53 307 q 138 451 99 414 q 264 551 178 488 z "},"À":{"ha":1135,"x_min":14,"x_max":1121,"o":"m 1088 39 q 1121 26 1092 26 l 1121 0 l 839 0 l 839 26 q 864 35 857 26 q 867 51 871 43 l 790 247 l 338 247 l 261 51 l 260 47 q 267 33 260 39 q 288 26 275 26 l 288 0 l 14 0 l 14 26 q 47 39 42 26 l 433 978 q 438 993 438 986 q 426 1010 438 1006 q 403 1015 415 1015 l 403 1042 l 726 1042 l 726 1015 q 703 1010 714 1015 q 692 993 692 1006 q 696 978 692 986 l 1088 39 m 564 825 l 400 407 l 728 407 l 564 825 m 561 1094 l 381 1368 l 542 1368 l 672 1094 l 561 1094 z "},"Á":{"ha":1135,"x_min":14,"x_max":1121,"o":"m 1088 39 q 1121 26 1092 26 l 1121 0 l 839 0 l 839 26 q 864 35 857 26 q 867 51 871 43 l 790 247 l 338 247 l 261 51 l 260 47 q 267 33 260 39 q 288 26 275 26 l 288 0 l 14 0 l 14 26 q 47 39 42 26 l 433 978 q 438 993 438 986 q 426 1010 438 1006 q 403 1015 415 1015 l 403 1042 l 726 1042 l 726 1015 q 703 1010 714 1015 q 692 993 692 1006 q 696 978 692 986 l 1088 39 m 564 825 l 400 407 l 728 407 l 564 825 m 608 1368 l 769 1368 l 589 1094 l 478 1094 l 608 1368 z "},"Â":{"ha":1135,"x_min":14,"x_max":1121,"o":"m 1088 39 q 1121 26 1092 26 l 1121 0 l 839 0 l 839 26 q 864 35 857 26 q 867 51 871 43 l 790 247 l 338 247 l 261 51 l 260 47 q 267 33 260 39 q 288 26 275 26 l 288 0 l 14 0 l 14 26 q 47 39 42 26 l 433 978 q 438 993 438 986 q 426 1010 438 1006 q 403 1015 415 1015 l 403 1042 l 726 1042 l 726 1015 q 703 1010 714 1015 q 692 993 692 1006 q 696 978 692 986 l 1088 39 m 564 825 l 400 407 l 728 407 l 564 825 m 647 1331 l 828 1110 l 686 1110 l 575 1246 l 464 1110 l 322 1110 l 503 1331 l 647 1331 z "},"Ã":{"ha":1135,"x_min":14,"x_max":1121,"o":"m 1088 39 q 1121 26 1092 26 l 1121 0 l 839 0 l 839 26 q 864 35 857 26 q 867 51 871 43 l 790 247 l 338 247 l 261 51 l 260 47 q 267 33 260 39 q 288 26 275 26 l 288 0 l 14 0 l 14 26 q 47 39 42 26 l 433 978 q 438 993 438 986 q 426 1010 438 1006 q 403 1015 415 1015 l 403 1042 l 726 1042 l 726 1015 q 703 1010 714 1015 q 692 993 692 1006 q 696 978 692 986 l 1088 39 m 564 825 l 400 407 l 728 407 l 564 825 m 563 1185 q 476 1213 513 1213 q 435 1201 460 1213 q 386 1168 410 1189 l 318 1260 q 392 1314 354 1294 q 464 1333 431 1333 q 517 1326 494 1333 q 568 1300 540 1318 q 660 1260 632 1260 q 708 1274 690 1260 q 750 1325 725 1289 l 832 1257 q 763 1170 797 1197 q 679 1143 728 1143 q 622 1155 650 1143 q 563 1185 593 1167 z "},"Ä":{"ha":1135,"x_min":14,"x_max":1121,"o":"m 1088 39 q 1121 26 1092 26 l 1121 0 l 839 0 l 839 26 q 864 35 857 26 q 867 51 871 43 l 790 247 l 338 247 l 261 51 l 260 47 q 267 33 260 39 q 288 26 275 26 l 288 0 l 14 0 l 14 26 q 47 39 42 26 l 433 978 q 438 993 438 986 q 426 1010 438 1006 q 403 1015 415 1015 l 403 1042 l 726 1042 l 726 1015 q 703 1010 714 1015 q 692 993 692 1006 q 696 978 692 986 l 1088 39 m 564 825 l 400 407 l 728 407 l 564 825 m 419 1132 q 349 1160 378 1132 q 321 1231 321 1189 q 349 1299 321 1271 q 419 1326 378 1326 q 487 1299 458 1326 q 515 1231 515 1271 q 488 1160 515 1189 q 419 1132 460 1132 m 733 1132 q 663 1160 692 1132 q 635 1231 635 1189 q 663 1299 635 1271 q 733 1326 692 1326 q 801 1299 772 1326 q 829 1231 829 1271 q 801 1160 829 1189 q 733 1132 774 1132 z "},"Å":{"ha":1135,"x_min":14,"x_max":1121,"o":"m 1088 39 q 1121 26 1092 26 l 1121 0 l 839 0 l 839 26 q 864 35 857 26 q 867 51 871 43 l 790 247 l 338 247 l 261 51 l 260 47 q 267 33 260 39 q 288 26 275 26 l 288 0 l 14 0 l 14 26 q 47 39 42 26 l 433 978 q 438 993 438 986 q 426 1010 438 1006 q 403 1015 415 1015 l 403 1042 l 726 1042 l 726 1015 q 703 1010 714 1015 q 692 993 692 1006 q 696 978 692 986 l 1088 39 m 564 825 l 400 407 l 728 407 l 564 825 m 576 1079 q 469 1123 513 1079 q 425 1231 425 1167 q 469 1335 425 1292 q 576 1379 513 1379 q 681 1335 638 1379 q 725 1231 725 1292 q 681 1123 725 1167 q 576 1079 638 1079 m 576 1160 q 624 1180 604 1160 q 644 1231 644 1200 q 624 1278 644 1258 q 576 1299 604 1299 q 526 1278 546 1299 q 506 1231 506 1258 q 526 1180 506 1200 q 576 1160 546 1160 z "},"Æ":{"ha":1440,"x_min":14,"x_max":1413,"o":"m 1413 194 l 1413 -28 l 1386 -28 q 1382 -8 1386 -18 q 1371 1 1378 1 l 664 1 l 664 28 q 684 32 674 28 q 694 43 694 36 l 694 247 l 371 247 l 267 49 q 265 42 265 46 q 288 26 265 26 l 288 0 l 14 0 l 14 26 q 50 36 44 26 l 551 981 q 557 999 557 990 q 528 1015 557 1015 l 528 1042 l 1335 1042 q 1346 1051 1342 1042 q 1350 1069 1350 1061 l 1376 1069 l 1376 851 l 1350 851 q 1346 869 1350 860 q 1335 879 1342 879 l 874 879 l 874 635 l 1267 635 q 1278 644 1274 635 q 1282 664 1282 654 l 1308 664 l 1308 442 l 1282 442 q 1278 461 1282 451 q 1267 471 1274 471 l 874 471 l 874 165 l 1371 165 q 1382 175 1378 165 q 1386 194 1386 185 l 1413 194 m 694 868 l 454 407 l 694 407 l 694 868 z "},"Ç":{"ha":1063,"x_min":42,"x_max":1056,"o":"m 849 353 l 1056 179 l 1039 158 q 1018 171 1031 165 q 1001 171 1006 176 q 830 37 919 82 q 617 -14 740 -8 l 596 -62 q 692 -101 656 -68 q 729 -185 729 -133 q 678 -281 729 -244 q 553 -318 628 -318 q 401 -278 474 -318 l 435 -207 q 531 -231 490 -231 q 586 -215 567 -231 q 606 -174 606 -199 q 581 -134 606 -150 q 510 -118 556 -118 l 549 -12 q 291 68 407 -4 q 108 260 175 140 q 42 528 42 381 q 114 813 42 689 q 308 1003 186 936 q 576 1071 431 1071 q 813 1022 717 1071 q 996 883 910 972 q 1004 881 999 881 q 1033 893 1013 881 l 1050 872 l 858 721 l 842 742 q 855 756 850 747 q 854 769 860 765 q 733 856 796 826 q 579 886 669 886 q 406 840 485 886 q 281 711 326 793 q 235 528 235 629 q 283 351 235 431 q 413 225 332 271 q 585 179 493 179 q 732 209 671 179 q 847 299 793 239 l 850 304 q 844 320 850 311 q 831 333 838 329 l 849 353 z "},"È":{"ha":846,"x_min":69,"x_max":818,"o":"m 818 194 l 818 -28 l 792 -28 q 788 -8 792 -18 q 776 1 783 1 l 69 1 l 69 28 q 90 32 79 28 q 100 43 100 36 l 100 1001 q 90 1013 100 1008 q 69 1017 79 1017 l 69 1043 l 740 1043 q 751 1053 747 1043 q 756 1072 756 1063 l 782 1072 l 782 850 l 756 850 q 751 869 756 860 q 740 879 747 879 l 279 879 l 279 635 l 672 635 q 683 644 679 635 q 688 664 688 654 l 714 664 l 714 442 l 688 442 q 683 461 688 451 q 672 471 679 471 l 279 471 l 279 165 l 776 165 q 788 175 783 165 q 792 194 792 185 l 818 194 m 410 1094 l 229 1368 l 390 1368 l 521 1094 l 410 1094 z "},"É":{"ha":846,"x_min":69,"x_max":818,"o":"m 818 194 l 818 -28 l 792 -28 q 788 -8 792 -18 q 776 1 783 1 l 69 1 l 69 28 q 90 32 79 28 q 100 43 100 36 l 100 1001 q 90 1013 100 1008 q 69 1017 79 1017 l 69 1043 l 740 1043 q 751 1053 747 1043 q 756 1072 756 1063 l 782 1072 l 782 850 l 756 850 q 751 869 756 860 q 740 879 747 879 l 279 879 l 279 635 l 672 635 q 683 644 679 635 q 688 664 688 654 l 714 664 l 714 442 l 688 442 q 683 461 688 451 q 672 471 679 471 l 279 471 l 279 165 l 776 165 q 788 175 783 165 q 792 194 792 185 l 818 194 m 457 1368 l 618 1368 l 438 1094 l 326 1094 l 457 1368 z "},"Ê":{"ha":846,"x_min":69,"x_max":818,"o":"m 818 194 l 818 -28 l 792 -28 q 788 -8 792 -18 q 776 1 783 1 l 69 1 l 69 28 q 90 32 79 28 q 100 43 100 36 l 100 1001 q 90 1013 100 1008 q 69 1017 79 1017 l 69 1043 l 740 1043 q 751 1053 747 1043 q 756 1072 756 1063 l 782 1072 l 782 850 l 756 850 q 751 869 756 860 q 740 879 747 879 l 279 879 l 279 635 l 672 635 q 683 644 679 635 q 688 664 688 654 l 714 664 l 714 442 l 688 442 q 683 461 688 451 q 672 471 679 471 l 279 471 l 279 165 l 776 165 q 788 175 783 165 q 792 194 792 185 l 818 194 m 496 1331 l 676 1110 l 535 1110 l 424 1246 l 313 1110 l 171 1110 l 351 1331 l 496 1331 z "},"Ë":{"ha":846,"x_min":69,"x_max":818,"o":"m 818 194 l 818 -28 l 792 -28 q 788 -8 792 -18 q 776 1 783 1 l 69 1 l 69 28 q 90 32 79 28 q 100 43 100 36 l 100 1001 q 90 1013 100 1008 q 69 1017 79 1017 l 69 1043 l 740 1043 q 751 1053 747 1043 q 756 1072 756 1063 l 782 1072 l 782 850 l 756 850 q 751 869 756 860 q 740 879 747 879 l 279 879 l 279 635 l 672 635 q 683 644 679 635 q 688 664 688 654 l 714 664 l 714 442 l 688 442 q 683 461 688 451 q 672 471 679 471 l 279 471 l 279 165 l 776 165 q 788 175 783 165 q 792 194 792 185 l 818 194 m 268 1132 q 198 1160 226 1132 q 169 1231 169 1189 q 198 1299 169 1271 q 268 1326 226 1326 q 335 1299 307 1326 q 364 1231 364 1271 q 336 1160 364 1189 q 268 1132 308 1132 m 582 1132 q 512 1160 540 1132 q 483 1231 483 1189 q 512 1299 483 1271 q 582 1326 540 1326 q 649 1299 621 1326 q 678 1231 678 1271 q 650 1160 678 1189 q 582 1132 622 1132 z "},"Ì":{"ha":394,"x_min":-18,"x_max":325,"o":"m 103 1000 q 92 1011 103 1007 q 69 1015 81 1015 l 69 1042 l 325 1042 l 325 1015 q 303 1011 314 1015 q 292 1000 292 1007 l 292 42 q 303 31 292 35 q 325 26 314 26 l 325 0 l 69 0 l 69 26 q 92 31 81 26 q 103 42 103 35 l 103 1000 m 163 1094 l -18 1368 l 143 1368 l 274 1094 l 163 1094 z "},"Í":{"ha":394,"x_min":69,"x_max":371,"o":"m 103 1000 q 92 1011 103 1007 q 69 1015 81 1015 l 69 1042 l 325 1042 l 325 1015 q 303 1011 314 1015 q 292 1000 292 1007 l 292 42 q 303 31 292 35 q 325 26 314 26 l 325 0 l 69 0 l 69 26 q 92 31 81 26 q 103 42 103 35 l 103 1000 m 210 1368 l 371 1368 l 190 1094 l 79 1094 l 210 1368 z "},"Î":{"ha":394,"x_min":-76,"x_max":429,"o":"m 103 1000 q 92 1011 103 1007 q 69 1015 81 1015 l 69 1042 l 325 1042 l 325 1015 q 303 1011 314 1015 q 292 1000 292 1007 l 292 42 q 303 31 292 35 q 325 26 314 26 l 325 0 l 69 0 l 69 26 q 92 31 81 26 q 103 42 103 35 l 103 1000 m 249 1331 l 429 1110 l 288 1110 l 176 1246 l 65 1110 l -76 1110 l 104 1331 l 249 1331 z "},"Ï":{"ha":394,"x_min":-78,"x_max":431,"o":"m 103 1000 q 92 1011 103 1007 q 69 1015 81 1015 l 69 1042 l 325 1042 l 325 1015 q 303 1011 314 1015 q 292 1000 292 1007 l 292 42 q 303 31 292 35 q 325 26 314 26 l 325 0 l 69 0 l 69 26 q 92 31 81 26 q 103 42 103 35 l 103 1000 m 21 1132 q -49 1160 -21 1132 q -78 1231 -78 1189 q -49 1299 -78 1271 q 21 1326 -21 1326 q 88 1299 60 1326 q 117 1231 117 1271 q 89 1160 117 1189 q 21 1132 61 1132 m 335 1132 q 265 1160 293 1132 q 236 1231 236 1189 q 265 1299 236 1271 q 335 1326 293 1326 q 402 1299 374 1326 q 431 1231 431 1271 q 403 1160 431 1189 q 335 1132 375 1132 z "},"Ð":{"ha":1038,"x_min":28,"x_max":996,"o":"m 483 1042 q 754 978 639 1042 q 933 796 869 915 q 996 513 996 676 q 928 240 996 356 q 741 62 861 124 q 467 0 621 0 l 92 0 l 92 26 q 112 31 101 26 q 122 42 122 35 l 122 454 l 28 454 l 28 608 l 122 608 l 122 1000 q 112 1011 122 1007 q 92 1015 101 1015 l 92 1042 l 483 1042 m 440 164 q 647 208 561 164 q 776 331 732 251 q 819 515 819 410 q 731 779 819 681 q 457 878 642 878 l 304 878 l 304 608 l 490 608 l 490 454 l 304 454 l 304 164 l 440 164 z "},"Ñ":{"ha":1078,"x_min":69,"x_max":1008,"o":"m 1008 1015 q 988 1011 999 1015 q 976 1000 976 1007 l 976 42 q 987 31 976 35 q 1007 26 997 26 l 1007 0 l 763 0 l 763 26 q 783 44 796 26 l 290 725 l 290 42 q 301 31 290 35 q 324 26 313 26 l 324 0 l 69 0 l 69 26 q 92 31 81 26 q 103 42 103 35 l 103 1000 q 92 1011 103 1007 q 72 1015 82 1015 l 72 1042 l 324 1042 l 324 1015 q 303 997 290 1015 l 810 294 l 792 1000 q 780 1011 792 1007 q 758 1015 768 1015 l 758 1042 l 1008 1042 l 1008 1015 m 506 1185 q 419 1213 456 1213 q 378 1201 403 1213 q 329 1168 353 1189 l 261 1260 q 335 1314 297 1294 q 407 1333 374 1333 q 460 1326 438 1333 q 511 1300 483 1318 q 603 1260 575 1260 q 651 1274 633 1260 q 693 1325 668 1289 l 775 1257 q 706 1170 740 1197 q 622 1143 671 1143 q 565 1155 593 1143 q 506 1185 536 1167 z "},"Ò":{"ha":1188,"x_min":42,"x_max":1146,"o":"m 597 -22 q 309 52 436 -22 q 112 249 182 126 q 42 510 42 372 q 108 777 42 649 q 301 986 175 906 q 597 1067 428 1067 q 888 990 763 1067 q 1079 787 1013 914 q 1146 510 1146 660 q 1080 253 1146 376 q 889 54 1014 131 q 597 -22 764 -22 m 599 161 q 785 205 703 161 q 915 328 868 249 q 961 510 961 408 q 917 701 961 617 q 789 835 872 786 q 592 885 706 885 q 406 835 488 885 q 279 700 325 786 q 233 510 233 614 q 287 322 233 401 q 424 202 340 243 q 599 161 508 161 m 574 1094 l 393 1368 l 554 1368 l 685 1094 l 574 1094 z "},"Ó":{"ha":1188,"x_min":42,"x_max":1146,"o":"m 597 -22 q 309 52 436 -22 q 112 249 182 126 q 42 510 42 372 q 108 777 42 649 q 301 986 175 906 q 597 1067 428 1067 q 888 990 763 1067 q 1079 787 1013 914 q 1146 510 1146 660 q 1080 253 1146 376 q 889 54 1014 131 q 597 -22 764 -22 m 599 161 q 785 205 703 161 q 915 328 868 249 q 961 510 961 408 q 917 701 961 617 q 789 835 872 786 q 592 885 706 885 q 406 835 488 885 q 279 700 325 786 q 233 510 233 614 q 287 322 233 401 q 424 202 340 243 q 599 161 508 161 m 621 1368 l 782 1368 l 601 1094 l 490 1094 l 621 1368 z "},"Ô":{"ha":1188,"x_min":42,"x_max":1146,"o":"m 597 -22 q 309 52 436 -22 q 112 249 182 126 q 42 510 42 372 q 108 777 42 649 q 301 986 175 906 q 597 1067 428 1067 q 888 990 763 1067 q 1079 787 1013 914 q 1146 510 1146 660 q 1080 253 1146 376 q 889 54 1014 131 q 597 -22 764 -22 m 599 161 q 785 205 703 161 q 915 328 868 249 q 961 510 961 408 q 917 701 961 617 q 789 835 872 786 q 592 885 706 885 q 406 835 488 885 q 279 700 325 786 q 233 510 233 614 q 287 322 233 401 q 424 202 340 243 q 599 161 508 161 m 660 1331 l 840 1110 l 699 1110 l 588 1246 l 476 1110 l 335 1110 l 515 1331 l 660 1331 z "},"Õ":{"ha":1188,"x_min":42,"x_max":1146,"o":"m 597 -22 q 309 52 436 -22 q 112 249 182 126 q 42 510 42 372 q 108 777 42 649 q 301 986 175 906 q 597 1067 428 1067 q 888 990 763 1067 q 1079 787 1013 914 q 1146 510 1146 660 q 1080 253 1146 376 q 889 54 1014 131 q 597 -22 764 -22 m 599 161 q 785 205 703 161 q 915 328 868 249 q 961 510 961 408 q 917 701 961 617 q 789 835 872 786 q 592 885 706 885 q 406 835 488 885 q 279 700 325 786 q 233 510 233 614 q 287 322 233 401 q 424 202 340 243 q 599 161 508 161 m 575 1185 q 489 1213 525 1213 q 447 1201 472 1213 q 399 1168 422 1189 l 331 1260 q 405 1314 367 1294 q 476 1333 443 1333 q 530 1326 507 1333 q 581 1300 553 1318 q 672 1260 644 1260 q 720 1274 703 1260 q 763 1325 738 1289 l 844 1257 q 775 1170 810 1197 q 692 1143 740 1143 q 634 1155 663 1143 q 575 1185 606 1167 z "},"Ö":{"ha":1188,"x_min":42,"x_max":1146,"o":"m 597 -22 q 309 52 436 -22 q 112 249 182 126 q 42 510 42 372 q 108 777 42 649 q 301 986 175 906 q 597 1067 428 1067 q 888 990 763 1067 q 1079 787 1013 914 q 1146 510 1146 660 q 1080 253 1146 376 q 889 54 1014 131 q 597 -22 764 -22 m 599 161 q 785 205 703 161 q 915 328 868 249 q 961 510 961 408 q 917 701 961 617 q 789 835 872 786 q 592 885 706 885 q 406 835 488 885 q 279 700 325 786 q 233 510 233 614 q 287 322 233 401 q 424 202 340 243 q 599 161 508 161 m 432 1132 q 362 1160 390 1132 q 333 1231 333 1189 q 362 1299 333 1271 q 432 1326 390 1326 q 499 1299 471 1326 q 528 1231 528 1271 q 500 1160 528 1189 q 432 1132 472 1132 m 746 1132 q 676 1160 704 1132 q 647 1231 647 1189 q 676 1299 647 1271 q 746 1326 704 1326 q 813 1299 785 1326 q 842 1231 842 1271 q 814 1160 842 1189 q 746 1132 786 1132 z "},"×":{"ha":833,"x_min":94,"x_max":739,"o":"m 690 326 q 697 324 693 324 q 710 328 703 324 q 721 336 717 332 l 739 317 l 586 164 l 567 182 q 577 199 574 189 q 576 213 581 208 l 417 372 l 257 213 q 254 206 254 210 q 258 193 254 200 q 267 182 263 186 l 247 164 l 94 317 l 113 336 q 129 326 119 329 q 143 326 139 322 l 303 486 l 143 646 q 136 649 140 649 q 124 644 131 649 q 113 636 117 640 l 94 656 l 247 808 l 267 790 q 256 774 260 783 q 257 760 253 764 l 417 600 l 576 760 q 579 767 579 763 q 575 779 579 772 q 567 790 571 786 l 586 808 l 739 656 l 721 636 q 704 647 714 643 q 690 646 694 650 l 531 486 l 690 326 z "},"Ø":{"ha":1171,"x_min":14,"x_max":1157,"o":"m 1157 1015 l 1014 872 q 1106 706 1074 799 q 1138 510 1138 613 q 1072 253 1138 376 q 881 54 1006 131 q 589 -22 756 -22 q 397 8 486 -22 q 238 96 308 39 l 93 -49 l 14 29 l 157 172 q 65 331 97 243 q 33 510 33 418 q 100 777 33 649 q 293 986 167 906 q 589 1067 419 1067 q 936 951 792 1067 l 1078 1093 l 1157 1015 m 225 510 q 290 306 225 393 l 806 821 q 583 885 711 885 q 398 835 479 885 q 271 700 317 786 q 225 510 225 614 m 953 510 q 883 742 953 647 l 371 229 q 475 178 418 196 q 590 161 532 161 q 777 205 694 161 q 906 328 860 249 q 953 510 953 408 z "},"Ù":{"ha":1065,"x_min":69,"x_max":996,"o":"m 543 -15 q 315 38 415 -15 q 160 191 215 90 q 104 428 104 292 l 104 1000 q 92 1011 104 1007 q 69 1015 81 1015 l 69 1042 l 338 1042 l 338 1015 q 315 1011 326 1015 q 303 1000 303 1007 l 303 469 q 363 239 303 319 q 543 158 424 158 q 717 242 674 158 q 761 458 761 325 l 761 1000 q 749 1011 761 1007 q 726 1015 738 1015 l 726 1042 l 996 1042 l 996 1015 q 973 1011 985 1015 q 961 1000 961 1007 l 961 453 q 860 108 961 232 q 543 -15 760 -15 m 499 1094 l 318 1368 l 479 1368 l 610 1094 l 499 1094 z "},"Ú":{"ha":1065,"x_min":69,"x_max":996,"o":"m 543 -15 q 315 38 415 -15 q 160 191 215 90 q 104 428 104 292 l 104 1000 q 92 1011 104 1007 q 69 1015 81 1015 l 69 1042 l 338 1042 l 338 1015 q 315 1011 326 1015 q 303 1000 303 1007 l 303 469 q 363 239 303 319 q 543 158 424 158 q 717 242 674 158 q 761 458 761 325 l 761 1000 q 749 1011 761 1007 q 726 1015 738 1015 l 726 1042 l 996 1042 l 996 1015 q 973 1011 985 1015 q 961 1000 961 1007 l 961 453 q 860 108 961 232 q 543 -15 760 -15 m 546 1368 l 707 1368 l 526 1094 l 415 1094 l 546 1368 z "},"Û":{"ha":1065,"x_min":69,"x_max":996,"o":"m 543 -15 q 315 38 415 -15 q 160 191 215 90 q 104 428 104 292 l 104 1000 q 92 1011 104 1007 q 69 1015 81 1015 l 69 1042 l 338 1042 l 338 1015 q 315 1011 326 1015 q 303 1000 303 1007 l 303 469 q 363 239 303 319 q 543 158 424 158 q 717 242 674 158 q 761 458 761 325 l 761 1000 q 749 1011 761 1007 q 726 1015 738 1015 l 726 1042 l 996 1042 l 996 1015 q 973 1011 985 1015 q 961 1000 961 1007 l 961 453 q 860 108 961 232 q 543 -15 760 -15 m 585 1331 l 765 1110 l 624 1110 l 513 1246 l 401 1110 l 260 1110 l 440 1331 l 585 1331 z "},"Ü":{"ha":1065,"x_min":69,"x_max":996,"o":"m 543 -15 q 315 38 415 -15 q 160 191 215 90 q 104 428 104 292 l 104 1000 q 92 1011 104 1007 q 69 1015 81 1015 l 69 1042 l 338 1042 l 338 1015 q 315 1011 326 1015 q 303 1000 303 1007 l 303 469 q 363 239 303 319 q 543 158 424 158 q 717 242 674 158 q 761 458 761 325 l 761 1000 q 749 1011 761 1007 q 726 1015 738 1015 l 726 1042 l 996 1042 l 996 1015 q 973 1011 985 1015 q 961 1000 961 1007 l 961 453 q 860 108 961 232 q 543 -15 760 -15 m 357 1132 q 287 1160 315 1132 q 258 1231 258 1189 q 287 1299 258 1271 q 357 1326 315 1326 q 424 1299 396 1326 q 453 1231 453 1271 q 425 1160 453 1189 q 357 1132 397 1132 m 671 1132 q 601 1160 629 1132 q 572 1231 572 1189 q 601 1299 572 1271 q 671 1326 629 1326 q 738 1299 710 1326 q 767 1231 767 1271 q 739 1160 767 1189 q 671 1132 711 1132 z "},"Ý":{"ha":1064,"x_min":14,"x_max":1050,"o":"m 1050 1015 l 1042 1015 q 1010 1007 1015 1015 l 636 471 l 636 42 q 648 31 636 35 q 671 26 660 26 l 671 0 l 399 0 l 399 26 q 422 31 410 26 q 433 42 433 35 l 433 463 l 54 1007 q 37 1014 50 1013 q 14 1015 24 1015 l 14 1042 l 300 1042 l 300 1015 q 283 1008 283 1015 q 288 996 283 1003 l 529 656 l 768 996 l 771 1001 q 763 1012 771 1008 q 742 1015 756 1015 l 742 1042 l 1050 1042 l 1050 1015 m 586 1368 l 747 1368 l 567 1094 l 456 1094 l 586 1368 z "},"Þ":{"ha":929,"x_min":69,"x_max":874,"o":"m 513 833 q 704 793 622 833 q 830 681 786 753 q 874 518 874 610 q 825 347 874 417 q 697 241 776 276 q 528 206 618 206 l 286 206 l 286 42 q 297 31 286 35 q 318 26 308 26 l 318 0 l 69 0 l 69 26 q 90 31 79 26 q 101 42 101 35 l 101 1000 q 90 1011 101 1007 q 69 1015 79 1015 l 69 1042 l 318 1042 l 318 1015 q 297 1011 308 1015 q 286 1000 286 1007 l 286 833 l 513 833 m 539 382 q 625 403 588 382 q 682 458 663 425 q 701 528 701 492 q 656 624 701 582 q 540 665 610 665 l 286 665 l 286 382 l 539 382 z "},"ß":{"ha":913,"x_min":69,"x_max":857,"o":"m 274 42 q 284 31 274 35 q 304 26 294 26 l 304 0 l 69 0 l 69 26 q 90 31 79 26 q 100 42 100 35 l 100 686 q 142 881 100 797 q 261 1009 183 964 q 443 1054 339 1054 q 608 1016 536 1054 q 719 912 679 978 q 758 764 758 846 q 736 668 758 715 q 679 585 714 621 q 810 476 763 554 q 857 290 857 399 q 776 65 857 146 q 553 -15 696 -15 q 375 14 469 -15 l 372 14 q 360 7 365 14 q 351 -7 354 0 l 326 1 l 401 204 l 426 194 q 424 175 424 186 q 429 160 424 164 q 536 136 488 136 q 645 178 606 136 q 685 294 685 219 q 632 422 685 376 q 486 467 579 467 l 401 467 q 390 458 394 467 q 386 442 386 450 l 360 442 l 360 638 l 386 638 q 390 621 386 629 q 401 613 394 613 l 422 613 q 545 657 503 613 q 588 761 588 701 q 547 856 588 814 q 431 897 506 897 q 318 846 363 897 q 274 711 274 794 l 274 42 z "},"à":{"ha":879,"x_min":49,"x_max":815,"o":"m 815 613 q 795 608 806 613 q 785 597 785 604 l 785 42 q 795 31 785 35 q 815 26 806 26 l 815 0 l 610 0 l 610 76 q 389 -18 522 -18 q 210 23 288 -18 q 91 140 133 64 q 49 318 49 217 q 95 494 49 417 q 219 613 142 571 q 389 656 297 656 q 610 553 522 656 l 610 639 l 815 639 l 815 613 m 410 129 q 512 155 467 129 q 582 223 557 181 q 607 314 607 265 q 552 451 607 397 q 410 506 497 506 q 270 453 325 506 q 215 318 215 400 q 272 181 215 232 q 410 129 328 129 m 404 706 l 224 979 l 385 979 l 515 706 l 404 706 z "},"á":{"ha":879,"x_min":49,"x_max":815,"o":"m 815 613 q 795 608 806 613 q 785 597 785 604 l 785 42 q 795 31 785 35 q 815 26 806 26 l 815 0 l 610 0 l 610 76 q 389 -18 522 -18 q 210 23 288 -18 q 91 140 133 64 q 49 318 49 217 q 95 494 49 417 q 219 613 142 571 q 389 656 297 656 q 610 553 522 656 l 610 639 l 815 639 l 815 613 m 410 129 q 512 155 467 129 q 582 223 557 181 q 607 314 607 265 q 552 451 607 397 q 410 506 497 506 q 270 453 325 506 q 215 318 215 400 q 272 181 215 232 q 410 129 328 129 m 451 979 l 613 979 l 432 706 l 321 706 l 451 979 z "},"â":{"ha":879,"x_min":49,"x_max":815,"o":"m 815 613 q 795 608 806 613 q 785 597 785 604 l 785 42 q 795 31 785 35 q 815 26 806 26 l 815 0 l 610 0 l 610 76 q 389 -18 522 -18 q 210 23 288 -18 q 91 140 133 64 q 49 318 49 217 q 95 494 49 417 q 219 613 142 571 q 389 656 297 656 q 610 553 522 656 l 610 639 l 815 639 l 815 613 m 410 129 q 512 155 467 129 q 582 223 557 181 q 607 314 607 265 q 552 451 607 397 q 410 506 497 506 q 270 453 325 506 q 215 318 215 400 q 272 181 215 232 q 410 129 328 129 m 490 942 l 671 721 l 529 721 l 418 857 l 307 721 l 165 721 l 346 942 l 490 942 z "},"ã":{"ha":879,"x_min":49,"x_max":815,"o":"m 815 613 q 795 608 806 613 q 785 597 785 604 l 785 42 q 795 31 785 35 q 815 26 806 26 l 815 0 l 610 0 l 610 76 q 389 -18 522 -18 q 210 23 288 -18 q 91 140 133 64 q 49 318 49 217 q 95 494 49 417 q 219 613 142 571 q 389 656 297 656 q 610 553 522 656 l 610 639 l 815 639 l 815 613 m 410 129 q 512 155 467 129 q 582 223 557 181 q 607 314 607 265 q 552 451 607 397 q 410 506 497 506 q 270 453 325 506 q 215 318 215 400 q 272 181 215 232 q 410 129 328 129 m 406 796 q 319 824 356 824 q 278 812 303 824 q 229 779 253 800 l 161 871 q 235 925 197 906 q 307 944 274 944 q 360 937 338 944 q 411 911 383 929 q 503 871 475 871 q 551 885 533 871 q 593 936 568 900 l 675 868 q 606 781 640 808 q 522 754 571 754 q 465 766 493 754 q 406 796 436 778 z "},"ä":{"ha":879,"x_min":49,"x_max":815,"o":"m 815 613 q 795 608 806 613 q 785 597 785 604 l 785 42 q 795 31 785 35 q 815 26 806 26 l 815 0 l 610 0 l 610 76 q 389 -18 522 -18 q 210 23 288 -18 q 91 140 133 64 q 49 318 49 217 q 95 494 49 417 q 219 613 142 571 q 389 656 297 656 q 610 553 522 656 l 610 639 l 815 639 l 815 613 m 410 129 q 512 155 467 129 q 582 223 557 181 q 607 314 607 265 q 552 451 607 397 q 410 506 497 506 q 270 453 325 506 q 215 318 215 400 q 272 181 215 232 q 410 129 328 129 m 263 743 q 192 772 221 743 q 164 842 164 800 q 192 910 164 882 q 263 938 221 938 q 330 910 301 938 q 358 842 358 882 q 331 772 358 800 q 263 743 303 743 m 576 743 q 506 772 535 743 q 478 842 478 800 q 506 910 478 882 q 576 938 535 938 q 644 910 615 938 q 672 842 672 882 q 644 772 672 800 q 576 743 617 743 z "},"å":{"ha":879,"x_min":49,"x_max":815,"o":"m 815 613 q 795 608 806 613 q 785 597 785 604 l 785 42 q 795 31 785 35 q 815 26 806 26 l 815 0 l 610 0 l 610 76 q 389 -18 522 -18 q 210 23 288 -18 q 91 140 133 64 q 49 318 49 217 q 95 494 49 417 q 219 613 142 571 q 389 656 297 656 q 610 553 522 656 l 610 639 l 815 639 l 815 613 m 410 129 q 512 155 467 129 q 582 223 557 181 q 607 314 607 265 q 552 451 607 397 q 410 506 497 506 q 270 453 325 506 q 215 318 215 400 q 272 181 215 232 q 410 129 328 129 m 419 690 q 312 734 356 690 q 268 842 268 778 q 312 947 268 903 q 419 990 356 990 q 524 947 481 990 q 568 842 568 903 q 524 734 568 778 q 419 690 481 690 m 419 771 q 467 791 447 771 q 488 842 488 811 q 467 890 488 869 q 419 910 447 910 q 369 890 389 910 q 349 842 349 869 q 369 791 349 811 q 419 771 389 771 z "},"æ":{"ha":1267,"x_min":49,"x_max":1225,"o":"m 889 668 q 1072 622 996 668 q 1186 498 1147 576 q 1225 324 1225 419 q 1221 263 1225 294 l 713 263 q 771 158 718 196 q 897 121 824 121 q 981 135 947 121 q 1042 176 1015 149 q 1044 183 1044 182 q 1040 195 1044 189 q 1032 204 1036 201 l 1049 225 l 1203 104 l 1188 83 q 1158 86 1167 96 q 897 -31 1061 -31 q 747 -1 815 -31 q 631 79 679 28 q 509 8 585 33 q 328 -18 433 -18 q 122 40 194 -18 q 49 193 49 99 q 124 353 49 299 q 313 415 200 408 q 431 419 385 419 q 536 415 486 419 q 482 499 522 471 q 389 526 442 526 q 284 513 338 526 q 196 467 231 500 q 194 460 194 465 q 199 446 194 454 q 207 433 203 438 l 186 415 l 54 565 l 74 583 q 89 572 79 576 q 106 572 99 568 q 253 648 188 632 q 376 664 318 664 q 517 637 449 664 q 633 558 586 610 q 748 640 682 611 q 889 668 814 668 m 1058 392 q 1004 489 1053 450 q 890 528 956 528 q 774 488 824 528 q 715 392 725 449 l 1058 392 m 342 111 q 493 146 443 111 q 543 232 543 181 l 543 269 l 471 269 q 315 265 364 269 q 258 242 279 263 q 238 193 238 221 q 265 133 238 156 q 342 111 293 111 z "},"ç":{"ha":713,"x_min":49,"x_max":692,"o":"m 536 224 l 686 99 l 669 79 q 639 83 647 92 q 543 4 593 32 q 417 -28 493 -24 l 401 -62 q 498 -101 461 -68 q 535 -185 535 -133 q 484 -281 535 -244 q 358 -318 433 -318 q 207 -278 279 -318 l 240 -207 q 336 -231 296 -231 q 392 -215 372 -231 q 411 -174 411 -199 q 386 -134 411 -150 q 315 -118 361 -118 l 349 -28 q 198 26 267 -19 q 89 145 129 72 q 49 303 49 218 q 94 491 49 410 q 215 616 139 572 q 383 660 292 660 q 495 644 449 660 q 570 608 542 629 q 642 547 599 586 q 649 544 644 544 q 662 549 654 544 q 674 557 669 553 l 692 538 l 542 399 l 524 418 q 535 434 531 424 q 536 450 540 444 q 399 511 486 511 q 266 458 319 511 q 213 321 213 406 q 264 181 213 233 q 399 128 315 128 q 467 138 440 128 q 526 178 493 149 q 529 185 529 181 q 519 203 529 193 l 536 224 z "},"è":{"ha":772,"x_min":49,"x_max":731,"o":"m 388 668 q 572 622 494 668 q 690 496 650 575 q 731 321 731 417 q 726 263 731 292 l 218 263 q 276 158 224 196 q 403 121 329 121 q 487 135 453 121 q 547 176 521 149 q 550 183 550 182 q 546 195 550 189 q 538 204 542 201 l 554 225 l 708 104 l 693 83 q 664 86 672 96 q 403 -31 567 -31 q 217 16 297 -31 q 92 141 136 63 q 49 315 49 219 q 92 497 49 417 q 212 623 135 578 q 388 668 289 668 m 564 392 q 506 488 558 449 q 389 528 454 528 q 276 488 324 528 q 219 392 229 449 l 564 392 m 379 706 l 199 979 l 360 979 l 490 706 l 379 706 z "},"é":{"ha":772,"x_min":49,"x_max":731,"o":"m 388 668 q 572 622 494 668 q 690 496 650 575 q 731 321 731 417 q 726 263 731 292 l 218 263 q 276 158 224 196 q 403 121 329 121 q 487 135 453 121 q 547 176 521 149 q 550 183 550 182 q 546 195 550 189 q 538 204 542 201 l 554 225 l 708 104 l 693 83 q 664 86 672 96 q 403 -31 567 -31 q 217 16 297 -31 q 92 141 136 63 q 49 315 49 219 q 92 497 49 417 q 212 623 135 578 q 388 668 289 668 m 564 392 q 506 488 558 449 q 389 528 454 528 q 276 488 324 528 q 219 392 229 449 l 564 392 m 419 979 l 581 979 l 400 706 l 289 706 l 419 979 z "},"ê":{"ha":772,"x_min":49,"x_max":731,"o":"m 388 668 q 572 622 494 668 q 690 496 650 575 q 731 321 731 417 q 726 263 731 292 l 218 263 q 276 158 224 196 q 403 121 329 121 q 487 135 453 121 q 547 176 521 149 q 550 183 550 182 q 546 195 550 189 q 538 204 542 201 l 554 225 l 708 104 l 693 83 q 664 86 672 96 q 403 -31 567 -31 q 217 16 297 -31 q 92 141 136 63 q 49 315 49 219 q 92 497 49 417 q 212 623 135 578 q 388 668 289 668 m 564 392 q 506 488 558 449 q 389 528 454 528 q 276 488 324 528 q 219 392 229 449 l 564 392 m 458 942 l 639 721 l 497 721 l 386 857 l 275 721 l 133 721 l 314 942 l 458 942 z "},"ë":{"ha":772,"x_min":49,"x_max":731,"o":"m 388 668 q 572 622 494 668 q 690 496 650 575 q 731 321 731 417 q 726 263 731 292 l 218 263 q 276 158 224 196 q 403 121 329 121 q 487 135 453 121 q 547 176 521 149 q 550 183 550 182 q 546 195 550 189 q 538 204 542 201 l 554 225 l 708 104 l 693 83 q 664 86 672 96 q 403 -31 567 -31 q 217 16 297 -31 q 92 141 136 63 q 49 315 49 219 q 92 497 49 417 q 212 623 135 578 q 388 668 289 668 m 564 392 q 506 488 558 449 q 389 528 454 528 q 276 488 324 528 q 219 392 229 449 l 564 392 m 231 743 q 160 772 189 743 q 132 842 132 800 q 160 910 132 882 q 231 938 189 938 q 298 910 269 938 q 326 842 326 882 q 299 772 326 800 q 231 743 271 743 m 544 743 q 474 772 503 743 q 446 842 446 800 q 474 910 446 882 q 544 938 503 938 q 612 910 583 938 q 640 842 640 882 q 613 772 640 800 q 544 743 585 743 z "},"ì":{"ha":350,"x_min":7,"x_max":299,"o":"m 188 706 l 7 979 l 168 979 l 299 706 l 188 706 m 86 597 q 76 608 86 604 q 56 613 65 613 l 56 639 l 294 639 l 294 613 q 274 608 285 613 q 264 597 264 604 l 264 42 q 274 31 264 35 q 294 26 285 26 l 294 0 l 56 0 l 56 26 q 76 31 65 26 q 86 42 86 35 l 86 597 z "},"í":{"ha":350,"x_min":51,"x_max":343,"o":"m 182 979 l 343 979 l 163 706 l 51 706 l 182 979 m 86 597 q 76 608 86 604 q 56 613 65 613 l 56 639 l 294 639 l 294 613 q 274 608 285 613 q 264 597 264 604 l 264 42 q 274 31 264 35 q 294 26 285 26 l 294 0 l 56 0 l 56 26 q 76 31 65 26 q 86 42 86 35 l 86 597 z "},"î":{"ha":350,"x_min":-78,"x_max":428,"o":"m 286 721 l 175 857 l 64 721 l -78 721 l 103 942 l 247 942 l 428 721 l 286 721 m 56 639 l 294 639 l 294 613 q 274 608 285 613 q 264 597 264 604 l 264 42 q 274 31 264 35 q 294 26 285 26 l 294 0 l 56 0 l 56 26 q 76 31 65 26 q 86 42 86 35 l 86 597 q 76 608 86 604 q 56 613 65 613 l 56 639 z "},"ï":{"ha":350,"x_min":-79,"x_max":429,"o":"m 19 743 q -51 772 -22 743 q -79 842 -79 800 q -51 910 -79 882 q 19 938 -22 938 q 88 910 60 938 q 115 842 115 882 q 88 772 115 800 q 19 743 60 743 m 333 743 q 263 772 292 743 q 235 842 235 800 q 263 910 235 882 q 333 938 292 938 q 401 910 374 938 q 429 842 429 882 q 401 772 429 800 q 333 743 374 743 m 88 597 q 77 608 88 604 q 57 613 67 613 l 57 639 l 296 639 l 296 613 q 276 608 286 613 q 265 597 265 604 l 265 42 q 276 31 265 35 q 296 26 286 26 l 296 0 l 57 0 l 57 26 q 77 31 67 26 q 88 42 88 35 l 88 597 z "},"ð":{"ha":833,"x_min":35,"x_max":757,"o":"m 757 317 q 711 145 757 222 q 582 24 665 68 q 390 -19 499 -19 q 207 22 288 -19 q 81 140 126 64 q 35 317 35 217 q 82 494 35 417 q 208 615 129 572 q 381 657 288 657 q 489 640 436 657 q 381 778 446 711 l 171 685 l 139 756 l 319 835 q 236 903 272 876 q 231 904 235 904 q 215 899 224 904 q 200 888 206 893 l 182 907 l 344 1071 l 364 1053 q 353 1037 357 1046 q 356 1024 350 1028 q 481 906 432 957 l 657 983 l 689 914 l 535 846 q 757 324 753 589 l 757 317 m 393 136 q 491 160 447 136 q 560 224 535 183 q 585 311 585 264 q 535 451 585 396 q 399 506 485 506 q 257 453 313 506 q 201 318 201 401 q 256 185 201 235 q 393 136 311 136 z "},"ñ":{"ha":849,"x_min":64,"x_max":785,"o":"m 753 42 q 763 31 753 35 q 785 26 774 26 l 785 0 l 540 0 l 540 26 q 562 31 551 26 q 572 42 572 35 l 572 331 q 538 452 572 401 q 433 503 503 503 q 319 456 363 503 q 275 319 275 408 l 275 42 q 285 31 275 35 q 307 26 296 26 l 307 0 l 64 0 l 64 26 q 85 31 75 26 q 96 42 96 35 l 96 597 q 85 608 96 604 q 65 613 75 613 l 65 639 l 275 639 l 275 582 q 360 634 311 615 q 461 653 410 653 q 616 615 550 653 q 717 515 682 578 q 753 374 753 451 l 753 42 m 396 796 q 310 824 346 824 q 268 812 293 824 q 219 779 243 800 l 151 871 q 226 925 188 906 q 297 944 264 944 q 351 937 328 944 q 401 911 374 929 q 493 871 465 871 q 541 885 524 871 q 583 936 558 900 l 665 868 q 596 781 631 808 q 513 754 561 754 q 455 766 483 754 q 396 796 426 778 z "},"ò":{"ha":792,"x_min":49,"x_max":743,"o":"m 396 -17 q 215 27 293 -17 q 92 147 136 71 q 49 319 49 224 q 92 492 49 414 q 215 615 136 569 q 396 660 294 660 q 572 616 493 660 q 697 495 651 572 q 743 319 743 418 q 702 156 743 233 q 582 31 661 79 q 396 -17 503 -17 m 396 143 q 528 191 478 143 q 579 315 579 239 q 528 446 579 394 q 396 497 478 497 q 268 447 319 497 q 217 319 217 396 q 268 191 217 239 q 396 143 319 143 m 368 706 l 188 979 l 349 979 l 479 706 l 368 706 z "},"ó":{"ha":792,"x_min":49,"x_max":743,"o":"m 396 -17 q 215 27 293 -17 q 92 147 136 71 q 49 319 49 224 q 92 492 49 414 q 215 615 136 569 q 396 660 294 660 q 572 616 493 660 q 697 495 651 572 q 743 319 743 418 q 702 156 743 233 q 582 31 661 79 q 396 -17 503 -17 m 396 143 q 528 191 478 143 q 579 315 579 239 q 528 446 579 394 q 396 497 478 497 q 268 447 319 497 q 217 319 217 396 q 268 191 217 239 q 396 143 319 143 m 415 979 l 576 979 l 396 706 l 285 706 l 415 979 z "},"ô":{"ha":792,"x_min":49,"x_max":743,"o":"m 396 -17 q 215 27 293 -17 q 92 147 136 71 q 49 319 49 224 q 92 492 49 414 q 215 615 136 569 q 396 660 294 660 q 572 616 493 660 q 697 495 651 572 q 743 319 743 418 q 702 156 743 233 q 582 31 661 79 q 396 -17 503 -17 m 396 143 q 528 191 478 143 q 579 315 579 239 q 528 446 579 394 q 396 497 478 497 q 268 447 319 497 q 217 319 217 396 q 268 191 217 239 q 396 143 319 143 m 454 942 l 635 721 l 493 721 l 382 857 l 271 721 l 129 721 l 310 942 l 454 942 z "},"õ":{"ha":792,"x_min":49,"x_max":743,"o":"m 396 -17 q 215 27 293 -17 q 92 147 136 71 q 49 319 49 224 q 92 492 49 414 q 215 615 136 569 q 396 660 294 660 q 572 616 493 660 q 697 495 651 572 q 743 319 743 418 q 702 156 743 233 q 582 31 661 79 q 396 -17 503 -17 m 396 143 q 528 191 478 143 q 579 315 579 239 q 528 446 579 394 q 396 497 478 497 q 268 447 319 497 q 217 319 217 396 q 268 191 217 239 q 396 143 319 143 m 369 796 q 283 824 319 824 q 242 812 267 824 q 193 779 217 800 l 125 871 q 199 925 161 906 q 271 944 238 944 q 324 937 301 944 q 375 911 347 929 q 467 871 439 871 q 515 885 497 871 q 557 936 532 900 l 639 868 q 569 781 604 808 q 486 754 535 754 q 428 766 457 754 q 369 796 400 778 z "},"ö":{"ha":792,"x_min":49,"x_max":743,"o":"m 396 -17 q 215 27 293 -17 q 92 147 136 71 q 49 319 49 224 q 92 492 49 414 q 215 615 136 569 q 396 660 294 660 q 572 616 493 660 q 697 495 651 572 q 743 319 743 418 q 702 156 743 233 q 582 31 661 79 q 396 -17 503 -17 m 396 143 q 528 191 478 143 q 579 315 579 239 q 528 446 579 394 q 396 497 478 497 q 268 447 319 497 q 217 319 217 396 q 268 191 217 239 q 396 143 319 143 m 226 743 q 156 772 185 743 q 128 842 128 800 q 156 910 128 882 q 226 938 185 938 q 294 910 265 938 q 322 842 322 882 q 294 772 322 800 q 226 743 267 743 m 540 743 q 470 772 499 743 q 442 842 442 800 q 470 910 442 882 q 540 938 499 938 q 608 910 579 938 q 636 842 636 882 q 608 772 636 800 q 540 743 581 743 z "},"÷":{"ha":833,"x_min":69,"x_max":764,"o":"m 418 636 q 333 670 367 636 q 299 756 299 704 q 333 838 299 804 q 418 872 368 872 q 501 838 467 872 q 535 756 535 804 q 501 670 535 704 q 418 636 467 636 m 111 408 q 100 399 104 408 q 96 381 96 390 l 69 381 l 69 592 l 96 592 q 100 573 96 582 q 111 564 104 564 l 722 564 q 733 573 729 564 q 738 592 738 582 l 764 592 l 764 381 l 738 381 q 733 399 738 390 q 722 408 729 408 l 111 408 m 418 100 q 333 134 367 100 q 299 219 299 168 q 333 302 299 268 q 418 336 368 336 q 501 302 467 336 q 535 219 535 268 q 501 134 535 168 q 418 100 467 100 z "},"ø":{"ha":792,"x_min":49,"x_max":743,"o":"m 665 542 q 743 319 743 449 q 702 156 743 233 q 582 31 661 79 q 396 -17 503 -17 q 176 53 265 -17 l 110 -14 l 60 36 l 125 101 q 69 201 89 144 q 49 319 49 257 q 92 492 49 414 q 215 615 136 569 q 396 660 294 660 q 614 590 521 660 l 681 657 l 731 607 l 665 542 m 217 319 q 244 221 217 261 l 494 471 q 396 497 450 497 q 268 447 319 497 q 217 319 217 396 m 396 143 q 528 191 478 143 q 579 315 579 239 q 547 424 579 376 l 294 171 q 396 143 339 143 z "},"ù":{"ha":783,"x_min":64,"x_max":719,"o":"m 689 42 q 699 31 689 35 q 719 26 710 26 l 719 0 l 547 0 l 547 51 q 376 -12 474 -12 q 163 72 231 -12 q 94 282 94 156 l 94 597 q 84 608 94 604 q 64 613 74 613 l 64 639 l 300 639 l 300 613 q 280 608 290 613 q 269 597 269 604 l 269 293 q 300 192 269 233 q 394 151 331 151 q 486 189 456 151 q 517 285 517 226 l 517 597 q 506 608 517 604 q 486 613 496 613 l 486 639 l 719 639 l 719 613 q 699 608 710 613 q 689 597 689 604 l 689 42 m 376 706 l 196 979 l 357 979 l 488 706 l 376 706 z "},"ú":{"ha":783,"x_min":64,"x_max":719,"o":"m 689 42 q 699 31 689 35 q 719 26 710 26 l 719 0 l 547 0 l 547 51 q 376 -12 474 -12 q 163 72 231 -12 q 94 282 94 156 l 94 597 q 84 608 94 604 q 64 613 74 613 l 64 639 l 300 639 l 300 613 q 280 608 290 613 q 269 597 269 604 l 269 293 q 300 192 269 233 q 394 151 331 151 q 486 189 456 151 q 517 285 517 226 l 517 597 q 506 608 517 604 q 486 613 496 613 l 486 639 l 719 639 l 719 613 q 699 608 710 613 q 689 597 689 604 l 689 42 m 424 979 l 585 979 l 404 706 l 293 706 l 424 979 z "},"û":{"ha":783,"x_min":64,"x_max":719,"o":"m 689 42 q 699 31 689 35 q 719 26 710 26 l 719 0 l 547 0 l 547 51 q 376 -12 474 -12 q 163 72 231 -12 q 94 282 94 156 l 94 597 q 84 608 94 604 q 64 613 74 613 l 64 639 l 300 639 l 300 613 q 280 608 290 613 q 269 597 269 604 l 269 293 q 300 192 269 233 q 394 151 331 151 q 486 189 456 151 q 517 285 517 226 l 517 597 q 506 608 517 604 q 486 613 496 613 l 486 639 l 719 639 l 719 613 q 699 608 710 613 q 689 597 689 604 l 689 42 m 463 942 l 643 721 l 501 721 l 390 857 l 279 721 l 138 721 l 318 942 l 463 942 z "},"ü":{"ha":783,"x_min":64,"x_max":719,"o":"m 689 42 q 699 31 689 35 q 719 26 710 26 l 719 0 l 547 0 l 547 51 q 376 -12 474 -12 q 163 72 231 -12 q 94 282 94 156 l 94 597 q 84 608 94 604 q 64 613 74 613 l 64 639 l 300 639 l 300 613 q 280 608 290 613 q 269 597 269 604 l 269 293 q 300 192 269 233 q 394 151 331 151 q 486 189 456 151 q 517 285 517 226 l 517 597 q 506 608 517 604 q 486 613 496 613 l 486 639 l 719 639 l 719 613 q 699 608 710 613 q 689 597 689 604 l 689 42 m 235 743 q 165 772 193 743 q 136 842 136 800 q 165 910 136 882 q 235 938 193 938 q 302 910 274 938 q 331 842 331 882 q 303 772 331 800 q 235 743 275 743 m 549 743 q 478 772 507 743 q 450 842 450 800 q 478 910 450 882 q 549 938 507 938 q 616 910 588 938 q 644 842 644 882 q 617 772 644 800 q 549 743 589 743 z "},"ý":{"ha":836,"x_min":14,"x_max":822,"o":"m 822 613 q 786 601 793 613 l 300 -356 q 299 -360 299 -357 q 308 -374 299 -368 q 333 -379 318 -379 l 333 -406 l 72 -406 l 72 -379 q 108 -368 101 -379 l 335 78 l 50 603 q 14 613 44 613 l 14 639 l 271 639 l 271 613 q 251 606 254 613 q 253 590 247 599 l 429 264 l 594 589 q 596 593 596 590 q 586 607 596 601 q 561 613 576 613 l 561 639 l 822 639 l 822 613 m 465 979 l 626 979 l 446 706 l 335 706 l 465 979 z "},"þ":{"ha":833,"x_min":42,"x_max":799,"o":"m 457 656 q 633 613 556 656 q 755 494 711 571 q 799 317 799 417 q 755 139 799 215 q 633 21 711 63 q 453 -21 554 -21 q 246 57 338 -21 l 246 -362 q 256 -374 246 -369 q 276 -378 267 -378 l 276 -404 l 42 -404 l 42 -378 q 62 -374 51 -378 q 72 -362 72 -369 l 72 1000 q 62 1011 72 1007 q 42 1015 51 1015 l 42 1042 l 276 1042 l 276 1015 q 256 1011 267 1015 q 246 1000 246 1007 l 246 581 q 457 656 340 656 m 439 128 q 576 178 521 128 q 632 314 632 228 q 578 451 632 397 q 439 504 524 504 q 297 451 351 504 q 242 313 242 397 q 267 222 242 265 q 338 153 293 179 q 439 128 383 128 z "},"ÿ":{"ha":836,"x_min":14,"x_max":822,"o":"m 822 613 q 786 601 793 613 l 300 -356 q 299 -360 299 -357 q 308 -374 299 -368 q 333 -379 318 -379 l 333 -406 l 72 -406 l 72 -379 q 108 -368 101 -379 l 335 78 l 50 603 q 14 613 44 613 l 14 639 l 271 639 l 271 613 q 251 606 254 613 q 253 590 247 599 l 429 264 l 594 589 q 596 593 596 590 q 586 607 596 601 q 561 613 576 613 l 561 639 l 822 639 l 822 613 m 276 743 q 206 772 235 743 q 178 842 178 800 q 206 910 178 882 q 276 938 235 938 q 344 910 315 938 q 372 842 372 882 q 344 772 372 800 q 276 743 317 743 m 590 743 q 520 772 549 743 q 492 842 492 800 q 520 910 492 882 q 590 938 549 938 q 658 910 629 938 q 686 842 686 882 q 658 772 686 800 q 590 743 631 743 z "},"ı":{"ha":350,"x_min":56,"x_max":294,"o":"m 86 597 q 76 608 86 604 q 56 613 65 613 l 56 639 l 294 639 l 294 613 q 274 608 285 613 q 264 597 264 604 l 264 42 q 274 31 264 35 q 294 26 285 26 l 294 0 l 56 0 l 56 26 q 76 31 65 26 q 86 42 86 35 l 86 597 z "},"Œ":{"ha":1383,"x_min":42,"x_max":1356,"o":"m 1356 194 l 1356 -28 l 1329 -28 q 1325 -8 1329 -18 q 1314 1 1321 1 l 568 1 q 295 73 415 1 q 108 261 175 144 q 42 510 42 378 q 105 766 42 643 q 288 965 168 889 q 568 1042 408 1042 l 1278 1042 q 1289 1051 1285 1042 q 1293 1069 1293 1061 l 1319 1069 l 1319 851 l 1293 851 q 1289 869 1293 860 q 1278 879 1285 879 l 817 879 l 817 635 l 1210 635 q 1221 644 1217 635 q 1225 664 1225 654 l 1251 664 l 1251 442 l 1225 442 q 1221 461 1225 451 q 1210 471 1217 471 l 817 471 l 817 165 l 1314 165 q 1325 175 1321 165 q 1329 194 1329 185 l 1356 194 m 638 165 l 638 879 l 568 879 q 390 830 469 879 q 267 696 311 781 q 222 510 222 611 q 274 328 222 407 q 405 208 325 250 q 568 165 485 165 l 638 165 z "},"œ":{"ha":1297,"x_min":49,"x_max":1263,"o":"m 926 668 q 1109 622 1033 668 q 1224 498 1185 576 q 1263 324 1263 419 q 1258 263 1263 294 l 750 263 q 808 158 756 196 q 935 121 861 121 q 1019 135 985 121 q 1079 176 1053 149 q 1082 183 1082 182 q 1078 195 1082 189 q 1069 204 1074 201 l 1086 225 l 1240 104 l 1225 83 q 1196 86 1204 96 q 935 -31 1099 -31 q 776 2 847 -31 q 657 93 704 35 q 544 13 611 42 q 396 -17 478 -17 q 215 27 293 -17 q 92 147 136 71 q 49 319 49 224 q 92 492 49 414 q 215 615 136 569 q 396 660 294 660 q 544 630 475 660 q 661 546 613 600 q 778 636 708 604 q 926 668 847 668 m 1096 392 q 1042 489 1090 450 q 928 528 993 528 q 812 488 861 528 q 753 392 763 449 l 1096 392 m 396 143 q 528 191 478 143 q 579 315 579 239 q 528 446 579 394 q 396 497 478 497 q 268 447 319 497 q 217 319 217 396 q 268 191 217 239 q 396 143 319 143 z "},"ʻ":{"ha":833,"x_min":0,"x_max":0,"o":""},"ʼ":{"ha":833,"x_min":0,"x_max":0,"o":""},"ˆ":{"ha":589,"x_min":42,"x_max":547,"o":"m 367 1331 l 547 1110 l 406 1110 l 294 1246 l 183 1110 l 42 1110 l 222 1331 l 367 1331 z "},"˚":{"ha":561,"x_min":131,"x_max":431,"o":"m 282 1079 q 174 1123 218 1079 q 131 1231 131 1167 q 174 1335 131 1292 q 282 1379 218 1379 q 387 1335 343 1379 q 431 1231 431 1292 q 387 1123 431 1167 q 282 1079 343 1079 m 282 1160 q 330 1180 310 1160 q 350 1231 350 1200 q 330 1278 350 1258 q 282 1299 310 1299 q 231 1278 251 1299 q 211 1231 211 1258 q 231 1180 211 1200 q 282 1160 251 1160 z "},"˜":{"ha":833,"x_min":201,"x_max":715,"o":"m 446 1185 q 360 1213 396 1213 q 318 1201 343 1213 q 269 1168 293 1189 l 201 1260 q 276 1314 238 1294 q 347 1333 314 1333 q 401 1326 378 1333 q 451 1300 424 1318 q 543 1260 515 1260 q 591 1274 574 1260 q 633 1325 608 1289 l 715 1257 q 646 1170 681 1197 q 563 1143 611 1143 q 505 1155 533 1143 q 446 1185 476 1167 z "},"̀":{"ha":0,"x_min":-635,"x_max":-343,"o":"m -454 1094 l -635 1368 l -474 1368 l -343 1094 l -454 1094 z "},"́":{"ha":0,"x_min":-537,"x_max":-246,"o":"m -407 1368 l -246 1368 l -426 1094 l -537 1094 l -407 1368 z "},"̃":{"ha":0,"x_min":-632,"x_max":-118,"o":"m -387 1185 q -474 1213 -437 1213 q -515 1201 -490 1213 q -564 1168 -540 1189 l -632 1260 q -558 1314 -596 1294 q -486 1333 -519 1333 q -433 1326 -456 1333 q -382 1300 -410 1318 q -290 1260 -318 1260 q -242 1274 -260 1260 q -200 1325 -225 1289 l -118 1257 q -187 1170 -153 1197 q -271 1143 -222 1143 q -328 1155 -300 1143 q -387 1185 -357 1167 z "},"̈":{"ha":0,"x_min":-654,"x_max":-146,"o":"m -556 1132 q -626 1160 -597 1132 q -654 1231 -654 1189 q -626 1299 -654 1271 q -556 1326 -597 1326 q -488 1299 -517 1326 q -460 1231 -460 1271 q -487 1160 -460 1189 q -556 1132 -515 1132 m -242 1132 q -312 1160 -283 1132 q -340 1231 -340 1189 q -312 1299 -340 1271 q -242 1326 -283 1326 q -174 1299 -203 1326 q -146 1231 -146 1271 q -174 1160 -146 1189 q -242 1132 -201 1132 z "}," ":{"ha":694,"x_min":0,"x_max":0,"o":""}," ":{"ha":278,"x_min":0,"x_max":0,"o":""},"–":{"ha":833,"x_min":69,"x_max":764,"o":"m 69 364 l 69 463 l 764 463 l 764 364 l 69 364 z "},"—":{"ha":1528,"x_min":69,"x_max":1458,"o":"m 69 364 l 69 463 l 1458 463 l 1458 364 l 69 364 z "},"‘":{"ha":393,"x_min":69,"x_max":324,"o":"m 324 768 q 288 685 324 719 q 200 651 251 651 q 105 690 140 651 q 69 808 69 729 q 141 979 69 929 q 317 1029 213 1029 l 317 993 q 213 955 257 983 q 169 885 169 926 q 204 888 182 888 q 290 853 256 888 q 324 768 324 819 z "},"’":{"ha":393,"x_min":69,"x_max":324,"o":"m 69 913 q 106 995 69 961 q 193 1029 142 1029 q 288 990 253 1029 q 324 872 324 951 q 252 701 324 751 q 76 651 181 651 l 76 688 q 180 726 136 697 q 224 796 224 754 q 189 793 211 793 q 103 827 138 793 q 69 913 69 861 z "},"‚":{"ha":463,"x_min":69,"x_max":324,"o":"m 69 104 q 106 187 69 153 q 193 221 142 221 q 288 182 253 221 q 324 64 324 143 q 252 -107 324 -57 q 76 -157 181 -157 l 76 -121 q 180 -83 136 -111 q 224 -12 224 -54 q 189 -15 211 -15 q 103 19 138 -15 q 69 104 69 53 z "},"“":{"ha":689,"x_min":69,"x_max":619,"o":"m 204 888 q 290 853 256 888 q 324 768 324 819 q 288 685 324 719 q 200 651 251 651 q 105 690 140 651 q 69 808 69 729 q 141 979 69 929 q 317 1029 213 1029 l 317 993 q 213 955 257 983 q 169 885 169 926 q 204 888 182 888 m 500 888 q 585 853 551 888 q 619 768 619 819 q 583 685 619 719 q 496 651 547 651 q 401 690 436 651 q 365 808 365 729 q 437 979 365 929 q 613 1029 508 1029 l 613 993 q 509 955 553 983 q 465 885 465 926 q 500 888 478 888 z "},"”":{"ha":689,"x_min":69,"x_max":619,"o":"m 193 1029 q 288 990 253 1029 q 324 872 324 951 q 252 701 324 751 q 76 651 181 651 l 76 688 q 180 726 136 697 q 224 796 224 754 q 189 793 211 793 q 103 827 138 793 q 69 913 69 861 q 106 995 69 961 q 193 1029 142 1029 m 489 1029 q 584 990 549 1029 q 619 872 619 951 q 548 701 619 751 q 372 651 476 651 l 372 688 q 476 726 432 697 q 519 796 519 754 q 485 793 507 793 q 399 827 433 793 q 365 913 365 861 q 401 995 365 961 q 489 1029 438 1029 z "},"„":{"ha":463,"x_min":69,"x_max":324,"o":"m 193 221 q 288 182 253 221 q 324 64 324 143 q 252 -107 324 -57 q 76 -157 181 -157 l 76 -121 q 180 -83 136 -111 q 224 -12 224 -54 q 189 -15 211 -15 q 103 19 138 -15 q 69 104 69 53 q 106 187 69 153 q 193 221 142 221 z "},"•":{"ha":510,"x_min":69,"x_max":440,"o":"m 257 206 q 123 259 176 206 q 69 392 69 313 q 94 484 69 442 q 161 551 118 526 q 257 575 204 575 q 349 551 307 575 q 416 484 392 526 q 440 392 440 442 q 388 259 440 313 q 257 206 335 206 z "},"…":{"ha":1389,"x_min":188,"x_max":1201,"o":"m 696 394 q 610 428 644 394 q 576 514 576 463 q 611 597 576 563 q 696 631 646 631 q 778 597 744 631 q 813 514 813 563 q 778 428 813 463 q 696 394 744 394 m 1085 394 q 999 428 1033 394 q 965 514 965 463 q 1000 597 965 563 q 1085 631 1035 631 q 1167 597 1133 631 q 1201 514 1201 563 q 1167 428 1201 463 q 1085 394 1133 394 m 307 394 q 222 428 256 394 q 188 514 188 463 q 222 597 188 563 q 307 631 257 631 q 390 597 356 631 q 424 514 424 563 q 390 428 424 463 q 307 394 356 394 z "},"′":{"ha":418,"x_min":111,"x_max":411,"o":"m 218 1042 l 411 1042 l 244 682 l 111 682 l 218 1042 z "},"″":{"ha":719,"x_min":111,"x_max":713,"o":"m 218 1042 l 411 1042 l 244 682 l 111 682 l 218 1042 m 519 1042 l 713 1042 l 546 682 l 413 682 l 519 1042 z "},"‹":{"ha":576,"x_min":104,"x_max":472,"o":"m 340 686 l 472 686 l 236 392 l 472 97 l 340 97 l 104 392 l 340 686 z "},"›":{"ha":576,"x_min":104,"x_max":472,"o":"m 104 686 l 236 686 l 472 392 l 236 97 l 104 97 l 340 392 l 104 686 z "},"⁄":{"ha":278,"x_min":-387,"x_max":664,"o":"m -387 33 l 626 1047 l 664 1008 l -350 -6 l -387 33 z "},"⁴":{"ha":903,"x_min":19,"x_max":883,"o":"m 883 407 l 883 189 l 857 189 q 853 207 857 197 q 842 217 849 217 l 711 217 l 711 42 q 722 31 711 35 q 742 26 732 26 l 742 0 l 508 0 l 508 26 q 528 31 518 26 q 539 42 539 35 l 539 217 l 61 217 q 50 206 54 217 q 46 186 46 196 l 19 186 l 19 379 l 488 1042 l 742 1042 l 742 1015 q 722 1011 732 1015 q 711 1000 711 1007 l 711 379 l 842 379 q 853 389 849 379 q 857 407 857 399 l 883 407 m 539 839 l 214 379 l 539 379 l 539 839 z "},"€":{"ha":1153,"x_min":14,"x_max":1146,"o":"m 939 353 l 1146 179 l 1129 158 q 1108 171 1121 165 q 1092 171 1096 176 q 908 31 1004 76 q 675 -14 813 -14 q 445 35 553 -14 q 261 172 338 83 q 153 374 185 260 l 14 374 l 56 481 l 133 481 q 132 528 132 496 q 135 586 132 547 l 14 586 l 56 693 l 154 693 q 263 894 188 808 q 442 1025 338 979 q 667 1071 547 1071 q 903 1022 807 1071 q 1086 883 1000 972 q 1094 881 1089 881 q 1124 893 1103 881 l 1140 872 l 949 721 l 932 742 q 945 756 940 747 q 944 769 950 765 q 823 856 886 826 q 669 886 760 886 q 487 834 569 886 q 363 693 404 782 l 836 693 l 794 586 l 329 586 q 325 528 325 557 q 328 481 325 511 l 836 481 l 794 374 l 361 374 q 490 232 406 285 q 675 179 575 179 q 822 209 761 179 q 938 299 883 239 l 940 304 q 934 320 940 311 q 921 333 928 329 l 939 353 z "},"™":{"ha":1415,"x_min":21,"x_max":1407,"o":"m 554 1053 q 563 1069 563 1053 l 579 1069 l 579 936 l 563 936 q 554 954 563 954 l 360 954 l 360 428 q 367 421 360 424 q 381 418 374 418 l 381 401 l 221 401 l 221 418 q 235 421 228 418 q 242 428 242 424 l 242 954 l 47 954 q 40 948 43 954 q 38 936 38 942 l 21 936 l 21 1069 l 38 1069 q 40 1058 38 1064 q 47 1053 43 1053 l 554 1053 m 1407 1036 q 1394 1033 1401 1036 q 1388 1026 1388 1031 l 1388 428 q 1394 421 1388 424 q 1407 418 1401 418 l 1407 401 l 1256 401 l 1256 418 q 1269 421 1263 418 q 1276 428 1276 424 l 1276 928 l 1021 368 l 768 926 l 768 428 q 775 421 768 424 q 788 418 782 418 l 788 401 l 635 401 l 635 418 q 649 421 642 418 q 656 428 656 424 l 656 1026 q 649 1033 656 1031 q 636 1036 642 1036 l 636 1053 l 860 1053 l 860 1036 q 847 1031 850 1036 q 846 1021 843 1026 l 1022 611 l 1201 1021 l 1201 1022 q 1194 1031 1201 1026 q 1179 1036 1188 1036 l 1179 1053 l 1407 1053 l 1407 1036 z "},"↑":{"ha":833,"x_min":69,"x_max":764,"o":"m 415 1042 l 764 693 l 674 606 l 479 800 l 479 0 l 354 0 l 354 803 l 157 604 l 69 693 l 415 1042 z "},"↓":{"ha":833,"x_min":69,"x_max":764,"o":"m 479 242 l 674 436 l 764 349 l 415 0 l 69 349 l 157 438 l 354 239 l 354 1042 l 479 1042 l 479 242 z "},"−":{"ha":833,"x_min":69,"x_max":764,"o":"m 111 406 q 100 396 104 406 q 96 378 96 386 l 69 378 l 69 594 l 96 594 q 100 576 96 586 q 111 567 104 567 l 722 567 q 733 576 729 567 q 738 594 738 586 l 764 594 l 764 378 l 738 378 q 733 396 738 386 q 722 406 729 406 l 111 406 z "},"∕":{"ha":139,"x_min":-269,"x_max":408,"o":"m -269 -56 l 335 990 l 408 947 l -196 -99 l -269 -56 z "},"�":{"ha":833,"x_min":0,"x_max":833,"o":"m 0 83 l 0 917 l 833 917 l 833 83 l 0 83 m 685 826 l 151 826 l 418 560 l 685 826 m 90 232 l 358 500 l 90 768 l 90 232 m 743 765 l 478 500 l 743 233 l 743 765 m 683 174 l 418 440 l 151 174 l 683 174 z "}}}
